<svg width="447" height="503" viewBox="0 0 447 503" fill="none" xmlns="http://www.w3.org/2000/svg">
<path d="M188.765 6.43197L112.943 74.3695L254.474 21.609L188.765 6.43197ZM107.792 77.4841L188.448 5.20801L188.729 5.27572L258.354 21.3538L256.609 22.0049L107.792 77.4841Z" fill="#764A09"/>
<path d="M258.583 21.7399L357.401 60.7243L334.318 10.9066L258.583 21.7399ZM359.594 62.792L358.292 62.2816L254.245 21.2243L334.984 9.68262L359.594 62.792Z" fill="#764A09"/>
<path d="M217.511 469.401L273.521 497.432L330.969 461.494L217.511 469.401ZM273.583 498.713L213.349 468.567L335.36 460.067L273.583 498.713Z" fill="#764A09"/>
<path d="M155.031 445.552L184.286 489.828L214.255 469.114L155.031 445.552ZM183.984 491.396L183.672 490.922L152.141 443.192L216.609 468.854L183.984 491.396Z" fill="#764A09"/>
<path d="M82.7238 406.984L109.896 455.651L152.083 444.198L82.7238 406.984ZM109.344 456.958L79.8853 404.192L155.088 444.541L109.344 456.958Z" fill="#764A09"/>
<path d="M40.1981 379.953L80.2033 404.26L50.1981 325.609L40.1981 379.953ZM82.4116 406.911L38.9585 380.505L49.8231 321.484L82.4116 406.911Z" fill="#764A09"/>
<path d="M7.479 278.698L49.2498 321.953L37.005 223.193L7.479 278.698ZM50.7707 325.136L6.104 278.891L6.29671 278.532L37.6821 219.542L50.7707 325.136Z" fill="#764A09"/>
<path d="M14.9009 168.516L37.0832 219.38L51.3957 126.964L14.9009 168.516ZM37.5988 223.354L13.5884 168.307L13.8228 168.042L53.0884 123.344L37.5988 223.354Z" fill="#764A09"/>
<path d="M69.7813 77.9635L53.4792 123.375L108.771 76.5469L69.7813 77.9635ZM51.0156 126.927L68.9844 76.875L111.964 75.3125L51.0156 126.927Z" fill="#764A09"/>
<path d="M257.042 22.333L260.651 66.3903L355.901 61.3382L257.042 22.333ZM259.625 67.5674L255.781 20.6299L361.094 62.1768L259.625 67.5674Z" fill="#764A09"/>
<path d="M111.667 76.4111L158.891 122.224L257.703 67.682L111.667 76.4111ZM158.708 123.604L158.412 123.317L109.068 75.4424L110.333 75.3695L262.578 66.2705L158.708 123.604Z" fill="#764A09"/>
<path d="M52.7241 125.703L38.12 220.021L157.182 123.511L52.7241 125.703ZM36.5679 222.714L51.7658 124.604L160.422 122.323L36.5679 222.714Z" fill="#764A09"/>
<path d="M37.9897 222.073L50.3231 321.495L90.1981 232.958L37.9897 222.073ZM49.7033 325.594L36.6929 220.656L91.7918 232.151L91.5054 232.786L49.7033 325.594Z" fill="#764A09"/>
<path d="M158.765 124.031L92.7394 230.792L184.885 172.693L158.765 124.031ZM89.2446 234.318L158.838 121.797L186.364 173.083L185.922 173.359L89.2446 234.318Z" fill="#764A09"/>
<path d="M262.167 67.432L351.339 115.323L357.86 62.3486L262.167 67.432ZM352.245 117.078L351.526 116.698L258.115 66.5257L359.13 61.1611L359.052 61.8278L352.245 117.078Z" fill="#764A09"/>
<path d="M50.8802 324.255L81.4167 404.297L121.396 335.901L50.8802 324.255ZM81.1979 406.875L49.1406 322.833L50.1042 322.994L123.182 335.057L122.771 335.765L81.1979 406.875Z" fill="#764A09"/>
<path d="M86.0521 405.979C86.0521 408.245 84.2135 410.078 81.9531 410.078C79.6875 410.078 77.8594 408.245 77.8594 405.979C77.8594 403.714 79.6875 401.875 81.9531 401.875C84.2135 401.875 86.0521 403.714 86.0521 405.979Z" fill="#764A09"/>
<path d="M336.667 461.01C336.667 463.276 334.833 465.114 332.568 465.114C330.307 465.114 328.474 463.276 328.474 461.01C328.474 458.75 330.307 456.911 332.568 456.911C334.833 456.911 336.667 458.75 336.667 461.01Z" fill="#764A09"/>
<path d="M94.3592 232.557C94.3592 234.823 92.5259 236.656 90.2603 236.656C87.9998 236.656 86.1665 234.823 86.1665 232.557C86.1665 230.292 87.9998 228.453 90.2603 228.453C92.5259 228.453 94.3592 230.292 94.3592 232.557Z" fill="#764A09"/>
<path d="M115.458 75.7708C115.458 78.0365 113.625 79.875 111.359 79.875C109.099 79.875 107.266 78.0365 107.266 75.7708C107.266 73.5052 109.099 71.6719 111.359 71.6719C113.625 71.6719 115.458 73.5052 115.458 75.7708Z" fill="#764A09"/>
<path d="M362.62 62.3333C362.62 64.599 360.787 66.4323 358.526 66.4323C356.261 66.4323 354.427 64.599 354.427 62.3333C354.427 60.0729 356.261 58.2344 358.526 58.2344C360.787 58.2344 362.62 60.0729 362.62 62.3333Z" fill="#764A09"/>
<path d="M261.865 21.3753C261.865 23.641 260.031 25.4795 257.766 25.4795C255.505 25.4795 253.672 23.641 253.672 21.3753C253.672 19.1097 255.505 17.2764 257.766 17.2764C260.031 17.2764 261.865 19.1097 261.865 21.3753Z" fill="#764A09"/>
<path d="M40.6561 221.677C40.6561 223.943 38.8228 225.781 36.5571 225.781C34.2967 225.781 32.4634 223.943 32.4634 221.677C32.4634 219.411 34.2967 217.578 36.5571 217.578C38.8228 217.578 40.6561 219.411 40.6561 221.677Z" fill="#764A09"/>
<path d="M56.6353 125.047C56.6353 127.313 54.8071 129.146 52.5415 129.146C50.2811 129.146 48.4478 127.313 48.4478 125.047C48.4478 122.782 50.2811 120.948 52.5415 120.948C54.8071 120.948 56.6353 122.782 56.6353 125.047Z" fill="#764A09"/>
<path d="M126.969 336.604C126.969 338.869 125.13 340.703 122.87 340.703C120.604 340.703 118.776 338.869 118.776 336.604C118.776 334.338 120.604 332.505 122.87 332.505C125.13 332.505 126.969 334.338 126.969 336.604Z" fill="#764A09"/>
<path d="M53.4427 323.427C53.4427 325.693 51.6094 327.526 49.3438 327.526C47.0833 327.526 45.25 325.693 45.25 323.427C45.25 321.162 47.0833 319.323 49.3438 319.323C51.6094 319.323 53.4427 321.162 53.4427 323.427Z" fill="#764A09"/>
<path d="M220.948 467.411C220.948 469.677 219.115 471.51 216.849 471.51C214.589 471.51 212.755 469.677 212.755 467.411C212.755 465.146 214.589 463.312 216.849 463.312C219.115 463.312 220.948 465.146 220.948 467.411Z" fill="#764A09"/>
<path d="M357.833 114.166C357.833 117.531 355.109 120.255 351.75 120.255C348.39 120.255 345.667 117.531 345.667 114.166C345.667 110.807 348.39 108.083 351.75 108.083C355.109 108.083 357.833 110.807 357.833 114.166Z" fill="#764A09"/>
<path d="M164.755 123.125C164.755 126.489 162.031 129.218 158.672 129.218C155.312 129.218 152.588 126.489 152.588 123.125C152.588 119.765 155.312 117.036 158.672 117.036C162.031 117.036 164.755 119.765 164.755 123.125Z" fill="#764A09"/>
<path d="M264.489 68.0934C264.489 71.4528 261.771 74.182 258.406 74.182C255.047 74.182 252.323 71.4528 252.323 68.0934C252.323 64.7288 255.047 62.0049 258.406 62.0049C261.771 62.0049 264.489 64.7288 264.489 68.0934Z" fill="#764A09"/>
<path d="M192.219 6.48926L252.724 27.6143L330.104 10.7132L192.219 6.48926ZM252.656 28.7705L252.505 28.7236L184.99 5.14551L339.203 9.87467L252.656 28.7705Z" fill="#764A09"/>
<path d="M348.448 32.2188L413.364 57.9375L336.276 11.9167L348.448 32.2188ZM419.39 61.5313L347.687 33.1198L333.026 8.67188L419.885 60.526L419.39 61.5313Z" fill="#764A09"/>
<path d="M187.073 7.39095L73.3071 75.7139L162.896 50.0941L187.073 7.39095ZM65.4634 79.1201L190.14 4.24512L163.646 51.0472L163.427 51.1097L65.4634 79.1201Z" fill="#764A09"/>
<path d="M68.8283 79.4167L16.7606 165.339L68.8283 117.448V79.4167ZM11.7241 171.484L69.9429 75.4219V117.938L69.7606 118.104L11.7241 171.484Z" fill="#764A09"/>
<path d="M14.6615 170.506L7.77604 272.563L27.0625 195.328L14.6615 170.506ZM7.33333 278.933L6.23438 278.761L13.8229 166.323L28.25 195.198L7.33333 278.933Z" fill="#764A09"/>
<path d="M7.79704 280.084L39.1408 377.052L41.9897 301.474L7.79704 280.084ZM40.021 383.407L5.78662 277.511L43.1304 300.87L43.12 301.193L40.021 383.407Z" fill="#764A09"/>
<path d="M41.7446 381.755L108.078 453.807L88.3175 401.536L41.7446 381.755ZM111.167 458.807L37.4165 378.703L89.1925 400.693L89.2811 400.917L111.167 458.807Z" fill="#764A09"/>
<path d="M316.99 453.901L275.552 496.808L385.573 459.62L316.99 453.901ZM271.552 499.339L316.552 452.745L316.818 452.766L391.037 458.953L271.552 499.339Z" fill="#764A09"/>
<path d="M112.552 457.042L182.333 489.167L160 459.828L112.552 457.042ZM185.938 492.058L106.693 455.573L160.583 458.745L160.735 458.948L185.938 492.058Z" fill="#764A09"/>
<path d="M187.167 490.302L271.109 497.307L234.734 476.302L187.167 490.302ZM275.995 498.839L181.109 490.922L234.875 475.094L235.089 475.208L275.995 498.839Z" fill="#764A09"/>
<path d="M255.036 28.8649L329.927 70.6722L347.214 33.1878L255.036 28.8649ZM330.438 72.2347L250.344 27.5264L348.922 32.1514L330.438 72.2347Z" fill="#764A09"/>
<path d="M166.734 50.2809L238.932 55.9476L251.677 29.0205L166.734 50.2809ZM239.615 57.1247L239.234 57.0934L159.812 50.8591L253.698 27.3643L239.615 57.1247Z" fill="#764A09"/>
<path d="M162.734 51.6406L71.4219 116.922L163.818 107.495L162.734 51.6406ZM67.3438 118.464L163.807 49.5L164.953 108.505L164.448 108.557L67.3438 118.464Z" fill="#764A09"/>
<path d="M69.5002 118.662L29.2554 193.464L95.37 147.427L69.5002 118.662ZM26.0522 197.058L69.271 116.729L97.0522 147.625L26.0522 197.058Z" fill="#764A09"/>
<path d="M165.427 107.963L238.719 151.026V57.5986L165.427 107.963ZM239.833 152.979L238.99 152.489L163.349 108.036L164.073 107.541L239.833 55.4736V152.979Z" fill="#764A09"/>
<path d="M239.833 57.1924V150.765L328.932 71.8174L239.833 57.1924ZM238.719 153.244V55.8799L331.438 71.0882L330.552 71.8747L238.719 153.244Z" fill="#764A09"/>
<path d="M330.943 71.1403L418.865 104.323L348.24 33.6299L330.943 71.1403ZM423.318 107.198L329.427 71.7653L329.677 71.2184L347.896 31.708L423.318 107.198Z" fill="#764A09"/>
<path d="M98.1825 147.032L237.104 151.381L164.386 108.646L98.1825 147.032ZM241.448 152.631L94.2397 148.026L164.391 107.354L164.672 107.516L241.448 152.631Z" fill="#764A09"/>
<path d="M28.521 195.338L98.5991 265.474L95.6772 148.583L28.521 195.338ZM99.7866 268.25L26.7866 195.182L96.745 146.474L96.7658 147.515L99.7866 268.25Z" fill="#764A09"/>
<path d="M28.4373 196.839L42.9946 300.256L98.2863 266.756L28.4373 196.839ZM42.1248 302.089L26.8696 193.683L100.088 266.974L42.1248 302.089Z" fill="#764A09"/>
<path d="M43.276 301.39L88.3646 398.937L98.5469 267.901L43.276 301.39ZM89.1458 403.291L41.8438 300.953L42.2708 300.692L99.8333 265.817L99.7448 266.906L89.1458 403.291Z" fill="#764A09"/>
<path d="M90.1144 401.495L160.177 458.474L211.265 385.427L90.1144 401.495ZM160.401 460.104L159.937 459.724L87.4009 400.729L213.64 383.984L212.911 385.026L160.401 460.104Z" fill="#764A09"/>
<path d="M161.229 458.922L234.047 474.958L212.203 386.036L161.229 458.922ZM235.562 476.432L159.354 459.651L212.698 383.375L235.562 476.432Z" fill="#764A09"/>
<path d="M172.313 106.916C172.313 111.156 168.875 114.593 164.641 114.593C160.401 114.593 156.969 111.156 156.969 106.916C156.969 102.677 160.401 99.2393 164.641 99.2393C168.875 99.2393 172.313 102.677 172.313 106.916Z" fill="#764A09"/>
<path d="M169.87 51.4528C169.87 54.8174 167.146 57.5413 163.786 57.5413C160.427 57.5413 157.703 54.8174 157.703 51.4528C157.703 48.0934 160.427 45.3643 163.786 45.3643C167.146 45.3643 169.87 48.0934 169.87 51.4528Z" fill="#764A09"/>
<mask id="mask0_549_12956" style="mask-type:luminance" maskUnits="userSpaceOnUse" x="410" y="96" width="18" height="17">
<path d="M410.745 96.1875H427.193V112.188H410.745V96.1875Z" fill="white"/>
</mask>
<g mask="url(#mask0_549_12956)">
<path d="M427.193 104.354C427.193 108.593 423.76 112.036 419.521 112.036C415.286 112.036 411.849 108.593 411.849 104.354C411.849 100.114 415.286 96.6768 419.521 96.6768C423.76 96.6768 427.193 100.114 427.193 104.354Z" fill="#764A09"/>
</g>
<path d="M103.26 147.869C103.26 152.114 99.8281 155.552 95.5938 155.552C91.3542 155.552 87.9219 152.114 87.9219 147.869C87.9219 143.63 91.3542 140.192 95.5938 140.192C99.8281 140.192 103.26 143.63 103.26 147.869Z" fill="#764A09"/>
<path d="M246.474 57.4271C246.474 61.6667 243.042 65.1094 238.802 65.1094C234.563 65.1094 231.13 61.6667 231.13 57.4271C231.13 53.1875 234.563 49.75 238.802 49.75C243.042 49.75 246.474 53.1875 246.474 57.4271Z" fill="#764A09"/>
<path d="M337.687 72.7865C337.687 77.026 334.25 80.4635 330.015 80.4635C325.776 80.4635 322.338 77.026 322.338 72.7865C322.338 68.5469 325.776 65.1094 330.015 65.1094C334.25 65.1094 337.687 68.5469 337.687 72.7865Z" fill="#764A09"/>
<path d="M353.995 33.5368C353.995 36.9014 351.276 39.6253 347.917 39.6253C344.552 39.6253 341.833 36.9014 341.833 33.5368C341.833 30.1722 344.552 27.4482 347.917 27.4482C351.276 27.4482 353.995 30.1722 353.995 33.5368Z" fill="#764A09"/>
<path d="M341.208 8.79167C341.208 12.1562 338.484 14.8802 335.13 14.8802C331.771 14.8802 329.047 12.1562 329.047 8.79167C329.047 5.42708 331.771 2.70312 335.13 2.70312C338.484 2.70312 341.208 5.42708 341.208 8.79167Z" fill="#764A09"/>
<path d="M258.406 28.4167C258.406 31.7812 255.687 34.5052 252.323 34.5052C248.969 34.5052 246.245 31.7812 246.245 28.4167C246.245 25.0573 248.969 22.3281 252.323 22.3281C255.687 22.3281 258.406 25.0573 258.406 28.4167Z" fill="#764A09"/>
<mask id="mask1_549_12956" style="mask-type:luminance" maskUnits="userSpaceOnUse" x="181" y="0" width="14" height="14">
<path d="M181.412 0H194.745V13.5208H181.412V0Z" fill="white"/>
</mask>
<g mask="url(#mask1_549_12956)">
<path d="M193.74 6.23405C193.74 9.59343 191.016 12.3226 187.656 12.3226C184.297 12.3226 181.573 9.59343 181.573 6.23405C181.573 2.86947 184.297 0.145508 187.656 0.145508C191.016 0.145508 193.74 2.86947 193.74 6.23405Z" fill="#764A09"/>
</g>
<path d="M75.245 78.7552C75.245 82.1198 72.5262 84.849 69.1668 84.849C65.8075 84.849 63.0835 82.1198 63.0835 78.7552C63.0835 75.3958 65.8075 72.6719 69.1668 72.6719C72.5262 72.6719 75.245 75.3958 75.245 78.7552Z" fill="#764A09"/>
<path d="M76.9533 118.859C76.9533 122.224 74.2293 124.953 70.87 124.953C67.5106 124.953 64.7866 122.224 64.7866 118.859C64.7866 115.494 67.5106 112.771 70.87 112.771C74.2293 112.771 76.9533 115.494 76.9533 118.859Z" fill="#764A09"/>
<path d="M35.1823 195.656C35.1823 199.016 32.4635 201.74 29.099 201.74C25.7396 201.74 23.0156 199.016 23.0156 195.656C23.0156 192.292 25.7396 189.562 29.099 189.562C32.4635 189.562 35.1823 192.292 35.1823 195.656Z" fill="#764A09"/>
<path d="M46.2658 379.099C46.2658 382.464 43.5418 385.193 40.1825 385.193C36.8231 385.193 34.0991 382.464 34.0991 379.099C34.0991 375.735 36.8231 373.011 40.1825 373.011C43.5418 373.011 46.2658 375.735 46.2658 379.099Z" fill="#764A09"/>
<path d="M113.61 457.599C113.61 460.964 110.886 463.688 107.526 463.688C104.167 463.688 101.443 460.964 101.443 457.599C101.443 454.235 104.167 451.511 107.526 451.511C110.886 451.511 113.61 454.235 113.61 457.599Z" fill="#764A09"/>
<path d="M189.359 490.875C189.359 494.239 186.635 496.963 183.276 496.963C179.917 496.963 177.198 494.239 177.198 490.875C177.198 487.51 179.917 484.786 183.276 484.786C186.635 484.786 189.359 487.51 189.359 490.875Z" fill="#764A09"/>
<mask id="mask2_549_12956" style="mask-type:luminance" maskUnits="userSpaceOnUse" x="267" y="490" width="14" height="13">
<path d="M267.422 490.161H280.078V502.937H267.422V490.161Z" fill="white"/>
</mask>
<g mask="url(#mask2_549_12956)">
<path d="M279.719 496.848C279.719 500.213 276.995 502.937 273.635 502.937C270.276 502.937 267.552 500.213 267.552 496.848C267.552 493.484 270.276 490.76 273.635 490.76C276.995 490.76 279.719 493.484 279.719 496.848Z" fill="#764A09"/>
</g>
<path d="M397.354 458.453C397.354 461.817 394.63 464.541 391.276 464.541C387.917 464.541 385.193 461.817 385.193 458.453C385.193 455.088 387.917 452.364 391.276 452.364C394.63 452.364 397.354 455.088 397.354 458.453Z" fill="#764A09"/>
<path d="M424.635 60.8438C424.635 64.2031 421.911 66.9271 418.552 66.9271C415.193 66.9271 412.469 64.2031 412.469 60.8438C412.469 57.4792 415.193 54.75 418.552 54.75C421.911 54.75 424.635 57.4792 424.635 60.8438Z" fill="#764A09"/>
<path d="M166.458 456.744C166.458 460.109 163.734 462.833 160.38 462.833C157.015 462.833 154.292 460.109 154.292 456.744C154.292 453.385 157.015 450.661 160.38 450.661C163.734 450.661 166.458 453.385 166.458 456.744Z" fill="#764A09"/>
<path d="M20.6925 168.349C20.6925 171.714 17.9686 174.438 14.6092 174.438C11.2498 174.438 8.52588 171.714 8.52588 168.349C8.52588 164.99 11.2498 162.261 14.6092 162.261C17.9686 162.261 20.6925 164.99 20.6925 168.349Z" fill="#764A09"/>
<mask id="mask3_549_12956" style="mask-type:luminance" maskUnits="userSpaceOnUse" x="0" y="273" width="14" height="14">
<path d="M0 273.521H13.4115V286.854H0V273.521Z" fill="white"/>
</mask>
<g mask="url(#mask3_549_12956)">
<path d="M12.1667 280.125C12.1667 283.489 9.44271 286.213 6.08333 286.213C2.72396 286.213 0 283.489 0 280.125C0 276.76 2.72396 274.036 6.08333 274.036C9.44271 274.036 12.1667 276.76 12.1667 280.125Z" fill="#764A09"/>
</g>
<path d="M219.198 384.224C219.198 388.464 215.76 391.901 211.526 391.901C207.286 391.901 203.854 388.464 203.854 384.224C203.854 379.979 207.286 376.542 211.526 376.542C215.76 376.542 219.198 379.979 219.198 384.224Z" fill="#764A09"/>
<path d="M243.063 473.812C243.063 478.052 239.63 481.489 235.396 481.489C231.156 481.489 227.719 478.052 227.719 473.812C227.719 469.567 231.156 466.13 235.396 466.13C239.63 466.13 243.063 469.567 243.063 473.812Z" fill="#764A09"/>
<path d="M325.75 451.631C325.75 455.865 322.318 459.308 318.078 459.308C313.844 459.308 310.406 455.865 310.406 451.631C310.406 447.386 313.844 443.948 318.078 443.948C322.318 443.948 325.75 447.386 325.75 451.631Z" fill="#764A09"/>
<path d="M48.7085 299.75C48.7085 303.989 45.271 307.427 41.0366 307.427C36.797 307.427 33.3647 303.989 33.3647 299.75C33.3647 295.51 36.797 292.067 41.0366 292.067C45.271 292.067 48.7085 295.51 48.7085 299.75Z" fill="#764A09"/>
<path d="M95.5936 400.432C95.5936 404.672 92.1561 408.109 87.9217 408.109C83.6821 408.109 80.2446 404.672 80.2446 400.432C80.2446 396.192 83.6821 392.755 87.9217 392.755C92.1561 392.755 95.5936 396.192 95.5936 400.432Z" fill="#764A09"/>
<path d="M247.948 152.136C247.948 158.136 243.088 163 237.094 163C231.104 163 226.245 158.136 226.245 152.136C226.245 146.141 231.104 141.276 237.094 141.276C243.088 141.276 247.948 146.141 247.948 152.136Z" fill="#764A09"/>
<path d="M109 267.328C109 273.323 104.141 278.188 98.151 278.188C92.1562 278.188 87.2969 273.323 87.2969 267.328C87.2969 261.328 92.1562 256.464 98.151 256.464C104.141 256.464 109 261.328 109 267.328Z" fill="#764A09"/>
<mask id="mask4_549_12956" style="mask-type:luminance" maskUnits="userSpaceOnUse" x="111" y="253" width="66" height="62">
<path d="M111.792 253.521H176.078V314.854H111.792V253.521Z" fill="white"/>
</mask>
<g mask="url(#mask4_549_12956)">
<path d="M138.333 314.666C133.344 314.666 128.854 313.744 124.875 311.901C120.896 310.062 117.713 307.354 115.338 303.791C113.021 300.166 111.859 295.797 111.859 290.682C111.859 287.119 112.484 283.255 113.734 279.093C116.469 270.177 120.594 263.76 126.12 259.838C131.646 255.854 137.557 253.864 143.859 253.864C147.245 253.864 150.245 254.369 152.859 255.38C155.474 256.39 157.88 257.849 160.078 259.75L162.484 257.875C164.088 256.63 165.427 255.765 166.495 255.291C167.625 254.817 168.875 254.578 170.239 254.578C171.724 254.578 172.911 254.906 173.802 255.557C174.698 256.213 175.141 257.161 175.141 258.411C175.141 259.067 175.021 259.718 174.786 260.375L169.792 274.281C169.26 275.885 168.604 277.015 167.833 277.666C167.12 278.323 166.021 278.651 164.536 278.651C162.989 278.651 161.713 278.114 160.703 277.041C159.75 275.916 158.651 274.015 157.406 271.338C155.979 268.547 154.823 266.703 153.927 265.812C153.036 264.922 151.729 264.474 150.01 264.474C147.573 264.474 145.224 265.989 142.969 269.021C140.708 271.994 138.661 276.479 136.818 282.484C135.271 287.536 134.5 291.755 134.5 295.14C134.5 298.114 135.062 300.343 136.193 301.828C137.323 303.255 138.838 303.968 140.739 303.968C143.531 303.968 145.818 303.343 147.599 302.093C149.443 300.849 151.312 299.156 153.219 297.015C154.406 295.708 155.354 294.755 156.068 294.161C156.838 293.505 157.641 293.182 158.474 293.182C159.547 293.182 160.672 293.713 161.859 294.786C163.052 295.854 163.614 296.927 163.557 297.994C163.614 299.302 162.547 301.323 160.349 304.057C158.208 306.791 155.208 309.255 151.344 311.458C147.542 313.593 143.203 314.666 138.333 314.666Z" fill="#764A09"/>
</g>
<path d="M203.515 266.969C211.599 266.969 217.542 268.604 221.344 271.875C225.203 275.141 227.135 279.422 227.135 284.714C227.135 286.495 226.901 288.484 226.422 290.682C225.297 295.557 223.182 299.839 220.094 303.521C217.005 307.146 213.203 309.969 208.687 311.99C204.229 313.953 199.39 314.932 194.161 314.932C185.901 314.932 179.781 313.297 175.797 310.031C171.88 306.703 169.917 302.302 169.917 296.833C169.917 294.995 170.156 292.943 170.63 290.682C171.76 286.047 173.896 281.948 177.047 278.38C180.255 274.755 184.146 271.964 188.724 270C193.359 267.979 198.286 266.969 203.515 266.969ZM203.25 274.906C202 274.906 200.667 276.031 199.239 278.292C197.875 280.49 196.239 284.682 194.338 290.865C192.437 297.042 191.484 301.38 191.484 303.88C191.484 305.188 191.693 306.078 192.109 306.552C192.526 306.969 193.088 307.177 193.802 307.177C195.052 307.297 196.328 306.224 197.635 303.969C199 301.708 200.693 297.313 202.713 290.776C204.557 285.01 205.479 280.818 205.479 278.203C205.479 276.953 205.271 276.094 204.854 275.62C204.5 275.141 203.963 274.906 203.25 274.906Z" fill="#764A09"/>
<path d="M280.453 301.828C280.339 302.302 280.276 302.661 280.276 302.896C280.276 303.313 280.365 303.641 280.547 303.88C280.781 304.115 281.078 304.234 281.438 304.234C282.151 304.234 282.745 303.938 283.219 303.344C283.755 302.693 284.109 302.365 284.286 302.365C284.583 302.365 284.823 302.573 285 302.99C285.24 303.344 285.359 303.792 285.359 304.323C285.417 305.99 284.823 307.651 283.573 309.318C282.328 310.922 280.573 312.26 278.318 313.328C276.057 314.401 273.531 314.932 270.74 314.932C267.234 314.932 264.443 314.219 262.365 312.792C260.281 311.37 258.948 309.495 258.354 307.177C256.214 309.557 253.839 311.37 251.224 312.615C248.667 313.802 246.052 314.401 243.38 314.401C239.219 314.401 235.714 313.391 232.865 311.37C230.068 309.286 228.672 306.406 228.672 302.719C228.672 301.057 228.969 299.333 229.563 297.547L235.271 278.917C235.448 278.38 235.536 277.938 235.536 277.578C235.536 276.927 235.385 276.422 235.089 276.063C234.792 275.646 234.349 275.229 233.755 274.818C233.161 274.339 232.745 273.922 232.505 273.568C232.271 273.208 232.24 272.734 232.417 272.141C232.771 270.776 234.646 269.583 238.031 268.573C241.417 267.505 244.953 266.969 248.635 266.969C252.083 266.969 254.609 267.625 256.214 268.932C257.818 270.24 258.62 272.021 258.62 274.281C258.62 275.646 258.411 276.953 257.995 278.203L252.38 296.745C252.146 297.401 252.026 298.026 252.026 298.62C252.026 299.453 252.26 300.073 252.74 300.49C253.214 300.906 253.839 301.115 254.609 301.115C255.74 301.115 256.656 300.786 257.37 300.135C258.083 299.479 258.797 298.38 259.51 296.833L264.948 278.917C265.125 278.38 265.214 277.938 265.214 277.578C265.214 276.927 265.068 276.422 264.771 276.063C264.474 275.646 264.057 275.229 263.521 274.818C262.927 274.339 262.51 273.922 262.276 273.568C262.036 273.208 262.005 272.734 262.182 272.141C262.484 270.776 264.323 269.583 267.708 268.573C271.099 267.505 274.63 266.969 278.318 266.969C281.76 266.969 284.286 267.625 285.891 268.932C287.557 270.24 288.385 271.995 288.385 274.193C288.385 275.323 288.151 276.656 287.677 278.203L280.453 301.828Z" fill="#764A09"/>
<mask id="mask5_549_12956" style="mask-type:luminance" maskUnits="userSpaceOnUse" x="280" y="265" width="71" height="67">
<path d="M280.078 265.521H350.745V331.067H280.078V265.521Z" fill="white"/>
</mask>
<g mask="url(#mask5_549_12956)">
<path d="M335.229 266.614C339.802 266.614 343.396 268.13 346.01 271.161C348.625 274.192 349.932 278.323 349.932 283.552C349.932 286.343 349.547 289.286 348.776 292.38C346.995 299.75 343.667 305.364 338.792 309.229C333.922 313.031 328.276 314.932 321.859 314.932C317.76 314.932 314.193 314.073 311.161 312.349L308.312 321.885C308.073 322.541 307.953 323.166 307.953 323.76C307.953 324.411 308.104 324.948 308.401 325.364C308.698 325.838 309.083 326.286 309.557 326.703C310.036 327.177 310.333 327.562 310.453 327.859C310.63 328.156 310.656 328.515 310.542 328.932C310.302 329.703 309.74 330.239 308.849 330.536C307.953 330.89 306.588 331.067 304.745 331.067H284.338C282.792 331.067 281.693 330.802 281.042 330.265C280.328 329.791 280.12 329.166 280.417 328.396C280.531 327.922 280.745 327.531 281.042 327.234C281.333 326.937 281.75 326.672 282.286 326.432C283.177 325.838 283.891 325.213 284.427 324.562C284.958 323.968 285.437 322.984 285.854 321.619L298.865 278.916C299.042 278.38 299.13 277.937 299.13 277.578C299.13 276.927 298.984 276.422 298.687 276.062C298.391 275.646 297.943 275.229 297.349 274.817C296.755 274.338 296.338 273.922 296.099 273.567C295.865 273.208 295.833 272.734 296.01 272.14C296.37 270.776 298.24 269.583 301.625 268.573C305.016 267.505 308.552 266.968 312.234 266.968C314.849 266.968 316.984 267.625 318.651 268.932C320.375 270.239 321.354 272.052 321.594 274.369C325.63 269.198 330.177 266.614 335.229 266.614ZM324.891 293.093C326.318 287.802 327.026 284.146 327.026 282.125C327.026 280.88 326.823 280.073 326.406 279.718C326.047 279.302 325.516 279.093 324.802 279.093C324.266 279.093 323.583 279.364 322.75 279.896C321.917 280.375 321.088 281.203 320.255 282.396L313.213 305.75C313.927 306.463 314.786 306.823 315.797 306.823C317.401 306.823 318.917 305.927 320.344 304.146C321.828 302.302 323.344 298.619 324.891 293.093Z" fill="#764A09"/>
</g>
<path d="M373.677 266.969C377.125 266.969 379.651 267.625 381.255 268.932C382.859 270.24 383.661 272.021 383.661 274.281C383.661 275.646 383.453 276.953 383.036 278.203L374.838 304.859C374.656 305.573 374.568 306.198 374.568 306.729C374.568 307.505 374.719 308.13 375.015 308.604C375.312 309.021 375.729 309.438 376.26 309.854C376.677 310.266 376.974 310.625 377.151 310.922C377.333 311.161 377.359 311.484 377.245 311.901C376.943 312.677 376.349 313.24 375.458 313.594C374.568 313.953 373.203 314.13 371.359 314.13H351.042C349.495 314.13 348.364 313.896 347.651 313.417C346.937 312.885 346.703 312.198 346.937 311.37C347.177 310.656 347.802 310.031 348.812 309.495C349.703 309.021 350.443 308.453 351.042 307.802C351.635 307.146 352.14 306.109 352.557 304.682L360.307 278.917C360.489 278.38 360.578 277.938 360.578 277.578C360.578 276.927 360.427 276.422 360.13 276.063C359.833 275.646 359.385 275.229 358.792 274.818C358.198 274.339 357.781 273.922 357.547 273.568C357.307 273.208 357.276 272.734 357.458 272.141C357.812 270.776 359.682 269.583 363.073 268.573C366.458 267.505 369.995 266.969 373.677 266.969Z" fill="#764A09"/>
<mask id="mask6_549_12956" style="mask-type:luminance" maskUnits="userSpaceOnUse" x="382" y="248" width="65" height="67">
<path d="M382.745 248.188H446.156V314.854H382.745V248.188Z" fill="white"/>
</mask>
<g mask="url(#mask6_549_12956)">
<path d="M432.698 301.292C432.578 301.771 432.521 302.094 432.521 302.276C432.521 302.693 432.64 303.016 432.875 303.255C433.114 303.495 433.411 303.609 433.765 303.609C434.479 303.609 435.073 303.313 435.552 302.719C436.083 302.068 436.443 301.74 436.62 301.74C436.917 301.74 437.156 301.948 437.333 302.365C437.51 302.781 437.599 303.255 437.599 303.792C437.656 305.396 437.036 307.031 435.729 308.693C434.479 310.359 432.786 311.724 430.646 312.792C428.51 313.865 426.193 314.401 423.698 314.401C420.724 314.401 418.14 313.833 415.943 312.703C413.745 311.578 412.229 310.089 411.396 308.245C409.792 310.328 407.948 311.875 405.87 312.885C403.792 313.896 401.594 314.401 399.276 314.401C396.542 314.401 393.984 313.714 391.609 312.349C389.292 310.979 387.422 309.052 385.995 306.552C384.63 304 383.948 301.115 383.948 297.906C383.948 292.495 384.953 287.417 386.974 282.661C389.057 277.849 391.937 273.984 395.62 271.073C399.307 268.099 403.495 266.615 408.187 266.615C410.745 266.615 412.911 266.911 414.693 267.505C416.536 268.099 418.198 268.99 419.687 270.177L422.713 260.193C422.896 259.661 422.984 259.214 422.984 258.859C422.984 258.203 422.807 257.667 422.448 257.25C422.151 256.839 421.734 256.422 421.198 256.005C420.604 255.531 420.161 255.115 419.864 254.755C419.625 254.401 419.594 253.922 419.776 253.328C420.13 251.964 422.005 250.776 425.39 249.766C428.776 248.755 432.312 248.25 435.995 248.25C439.443 248.25 441.969 248.901 443.573 250.208C445.234 251.516 446.068 253.302 446.068 255.557C446.068 256.865 445.859 258.146 445.443 259.391L432.698 301.292ZM417.812 276.24C416.864 275.411 415.823 274.995 414.693 274.995C412.969 274.995 411.276 276.271 409.614 278.828C407.948 281.385 406.614 284.474 405.604 288.099C404.594 291.724 404.12 294.995 404.177 297.906C404.177 301.177 405.245 302.807 407.385 302.807C408.156 302.807 408.812 302.51 409.349 301.917C409.88 301.266 410.385 300.224 410.859 298.797L417.812 276.24Z" fill="#764A09"/>
</g>
<path d="M362.047 248.756L378.406 244.37L382.328 259.021L365.969 263.407L362.047 248.756Z" fill="#764A09"/>
<path d="M369.797 246.677L370.656 246.448L374.578 261.099L373.719 261.328L369.797 246.677Z" fill="white"/>
<path d="M364.109 256.464L363.906 255.693L380.26 251.312L380.469 252.083L364.109 256.464Z" fill="white"/>
<mask id="mask7_549_12956" style="mask-type:luminance" maskUnits="userSpaceOnUse" x="369" y="239" width="9" height="8">
<path d="M369.412 239.245H377.412V246.854H369.412V239.245Z" fill="white"/>
</mask>
<g mask="url(#mask7_549_12956)">
<path d="M375.698 240.339C376.615 241.027 376.177 242.86 374.719 244.428C373.261 245.995 371.333 246.709 370.417 246.016C369.505 245.329 369.943 243.501 371.401 241.928C372.86 240.36 374.787 239.646 375.698 240.339Z" fill="#764A09"/>
</g>
<path d="M362.469 243.885C362.016 244.937 363.312 246.302 365.359 246.932C367.406 247.562 369.432 247.218 369.88 246.161C370.328 245.109 369.031 243.744 366.984 243.114C364.937 242.484 362.917 242.828 362.469 243.885Z" fill="#764A09"/>
</svg>
