<svg width="130" height="130" viewBox="0 0 130 130" fill="none" xmlns="http://www.w3.org/2000/svg">
<rect width="130" height="130" rx="28.0627" fill="url(#paint0_linear_388_7350)"/>
<rect width="130" height="130" rx="28.0627" fill="url(#paint1_linear_388_7350)"/>
<rect width="130" height="130" rx="28.0627" fill="url(#paint2_linear_388_7350)"/>
<rect width="130" height="130" rx="28.0627" fill="url(#paint3_linear_388_7350)"/>
<g filter="url(#filter0_d_388_7350)">
<path d="M68.3617 71.69C86.6408 71.69 104.706 69.4291 122.513 65.0147V65.1873C104.707 69.5982 86.6416 71.8575 68.3617 71.8575C50.0615 71.8575 31.9767 69.5932 14.1513 65.1726V65C31.9775 69.4241 50.0623 71.69 68.3617 71.69Z" fill="white"/>
<path d="M122.843 65.0147V64.5931L122.434 64.6945C104.652 69.1028 86.6133 71.3602 68.3617 71.3602C50.0898 71.3602 32.0316 69.0978 14.2307 64.6799L13.8215 64.5783V65V65.1726V65.4306L14.0719 65.4927C31.9226 69.9196 50.034 72.1873 68.3617 72.1873C86.6691 72.1873 104.761 69.9246 122.592 65.5074L122.843 65.4453V65.1873V65.0147Z" stroke="white" stroke-width="0.659594"/>
</g>
<g filter="url(#filter1_d_388_7350)">
<path d="M118.737 65.5632C120.098 65.1473 121.511 65.8248 121.893 67.0765C122.276 68.3282 121.483 69.68 120.123 70.0959C118.763 70.5118 117.35 69.8342 116.967 68.5826C116.584 67.3309 117.377 65.9791 118.737 65.5632Z" fill="white"/>
<path d="M117.528 61.6071C118.888 61.1912 120.301 61.8688 120.684 63.1205C121.067 64.3721 120.274 65.724 118.914 66.1398C117.553 66.5557 116.14 65.8782 115.758 64.6265C115.375 63.3748 116.167 62.023 117.528 61.6071Z" fill="white"/>
<path d="M123.985 64.2803C122.82 66.6354 122.446 68.6605 120.791 69.7909L118.255 61.4982C120.374 61.4559 121.725 63.0285 123.985 64.2803Z" fill="white"/>
</g>
<g filter="url(#filter2_d_388_7350)">
<path d="M20.4353 63.3497C19.6796 62.5384 18.0889 60.9415 19.1476 60.0144C20.2444 59.1328 21.5408 60.9767 22.2086 61.8618C22.8775 62.7484 23.6747 64.034 24.2245 65.3826C24.6353 66.3905 25.0378 67.001 25.2149 67.2452C25.0052 67.0284 24.4738 66.526 23.5526 65.9464C22.32 65.1708 21.1923 64.1624 20.4353 63.3497Z" fill="white"/>
</g>
<g filter="url(#filter3_d_388_7350)">
<path d="M19.3499 69.2711C18.3352 69.7181 16.2432 70.557 16.8497 71.8268C17.5092 73.0699 19.4284 71.8879 20.3914 71.3384C21.3561 70.788 22.5963 69.9217 23.6339 68.8998C24.4094 68.1361 25.0202 67.7341 25.2794 67.5797C25.0011 67.6961 24.3145 67.9478 23.2393 68.1166C21.8006 68.3423 20.3663 68.8235 19.3499 69.2711Z" fill="white"/>
</g>
<g filter="url(#filter4_d_388_7350)">
<path d="M8.79644 66.8728C7.78175 67.3197 5.68966 68.1586 6.29615 69.4284C6.95567 70.6715 8.87489 69.4895 9.83792 68.94C10.8026 68.3896 12.0428 67.5233 13.0804 66.5015C13.8559 65.7378 14.4668 65.3358 14.7259 65.1815C14.4477 65.2979 13.7611 65.5495 12.6858 65.7183C11.2471 65.944 9.81285 66.4251 8.79644 66.8728Z" fill="white"/>
</g>
<g filter="url(#filter5_d_388_7350)">
<path d="M13.8333 68.0719C12.8186 68.5189 10.7266 69.3578 11.3331 70.6276C11.9926 71.8707 13.9118 70.6886 14.8748 70.1392C15.8395 69.5888 17.0797 68.7224 18.1173 67.7006C18.8928 66.9369 19.5036 66.5349 19.7628 66.3805C19.4845 66.4969 18.7979 66.7486 17.7227 66.9173C16.284 67.1431 14.8497 67.6242 13.8333 68.0719Z" fill="white"/>
</g>
<g filter="url(#filter6_d_388_7350)">
<path d="M9.88183 61.191C9.12612 60.3797 7.53538 58.7828 8.59405 57.8557C9.69089 56.9741 10.9873 58.818 11.6551 59.7031C12.3239 60.5897 13.1212 61.8754 13.671 63.2239C14.0818 64.2318 14.4843 64.8424 14.6614 65.0865C14.4517 64.8697 13.9203 64.3673 12.9991 63.7877C11.7665 63.0121 10.6388 62.0037 9.88183 61.191Z" fill="white"/>
</g>
<g filter="url(#filter7_d_388_7350)">
<path d="M14.9187 62.1505C14.163 61.3392 12.5723 59.7423 13.6309 58.8152C14.7278 57.9336 16.0242 59.7774 16.692 60.6626C17.3608 61.5492 18.1581 62.8348 18.7079 64.1834C19.1187 65.1913 19.5212 65.8018 19.6983 66.046C19.4886 65.8292 18.9572 65.3268 18.036 64.7471C16.8034 63.9716 15.6757 62.9632 14.9187 62.1505Z" fill="white"/>
</g>
<g filter="url(#filter8_d_388_7350)">
<path d="M38.3764 59.1125H91.6254V89.41C91.6254 90.3676 90.8489 91.1439 89.8912 91.1439H39.9642C39.0064 91.1439 38.3764 90.362 38.3764 89.4044V59.1125Z" fill="url(#paint4_linear_388_7350)" shape-rendering="crispEdges"/>
<path d="M52.6826 36.6674C46.819 34.0409 41.2998 34.1693 40.3553 36.9542C39.4107 39.7392 43.3984 44.126 49.262 46.7525C49.4096 46.8186 49.5569 46.8829 49.704 46.9455H60.5816V43.2167C60.5816 43.0434 60.607 42.876 60.6543 42.7182C59.176 40.5565 56.2829 38.2801 52.6826 36.6674Z" fill="url(#paint5_linear_388_7350)" shape-rendering="crispEdges"/>
<path d="M60.5816 46.9455H49.704C55.0441 49.2191 60.0076 49.194 61.3664 46.9455H60.5816Z" fill="url(#paint6_linear_388_7350)" shape-rendering="crispEdges"/>
<path d="M60.5816 43.2167V46.9455H61.3664C61.4571 46.7955 61.5317 46.6355 61.5893 46.4656C61.9539 45.3907 61.5836 44.0771 60.6543 42.7182C60.607 42.876 60.5816 43.0434 60.5816 43.2167Z" fill="url(#paint7_linear_388_7350)" shape-rendering="crispEdges"/>
<path d="M69.5222 46.9455V43.2167C69.5222 43.1034 69.5113 42.9926 69.4905 42.8854C68.6437 44.1846 68.3176 45.4348 68.6672 46.4656C68.7249 46.6355 68.7995 46.7955 68.8902 46.9455H69.5222Z" fill="url(#paint8_linear_388_7350)" shape-rendering="crispEdges"/>
<path fill-rule="evenodd" clip-rule="evenodd" d="M80.9945 46.7525C80.847 46.8186 80.6996 46.8829 80.5526 46.9455H69.5222V43.2167C69.5222 43.1034 69.5113 42.9926 69.4905 42.8854C70.9316 40.6745 73.8807 38.3218 77.574 36.6674C83.4376 34.0409 88.9567 34.1693 89.9012 36.9542C90.8458 39.7392 86.8581 44.126 80.9945 46.7525ZM68.8902 46.9455C68.7995 46.7955 68.7249 46.6355 68.6672 46.4656C68.3176 45.4348 68.6437 44.1846 69.4905 42.8854C69.3359 42.0863 68.6324 41.4828 67.788 41.4828H62.3157C61.5313 41.4828 60.8685 42.0036 60.6543 42.7182C61.5836 44.0771 61.9539 45.3907 61.5893 46.4656C61.5317 46.6355 61.4571 46.7955 61.3664 46.9455C60.0076 49.194 55.0441 49.2191 49.704 46.9455H37.9817C36.6101 46.9455 35.4982 48.0572 35.4982 49.4286V56.6294C35.4982 58.0008 36.6101 59.1125 37.9817 59.1125H92.1221C93.4937 59.1125 94.6056 58.0008 94.6056 56.6294V49.4286C94.6056 48.0572 93.4937 46.9455 92.1221 46.9455H80.5526C75.2124 49.2191 70.2489 49.194 68.8902 46.9455Z" fill="url(#paint9_linear_388_7350)" shape-rendering="crispEdges"/>
<path d="M69.5222 46.9455H68.8902C70.2489 49.194 75.2124 49.2191 80.5526 46.9455H69.5222Z" fill="url(#paint10_linear_388_7350)" shape-rendering="crispEdges"/>
</g>
<defs>
<filter id="filter0_d_388_7350" x="12.2924" y="62.9575" width="113.998" height="12.6777" filterUnits="userSpaceOnUse" color-interpolation-filters="sRGB">
<feFlood flood-opacity="0" result="BackgroundImageFix"/>
<feColorMatrix in="SourceAlpha" type="matrix" values="0 0 0 0 0 0 0 0 0 0 0 0 0 0 0 0 0 0 127 0" result="hardAlpha"/>
<feOffset dx="0.95941" dy="0.95941"/>
<feGaussianBlur stdDeviation="1.07934"/>
<feComposite in2="hardAlpha" operator="out"/>
<feColorMatrix type="matrix" values="0 0 0 0 0 0 0 0 0 0 0 0 0 0 0 0 0 0 0.25 0"/>
<feBlend mode="normal" in2="BackgroundImageFix" result="effect1_dropShadow_388_7350"/>
<feBlend mode="normal" in="SourceGraphic" in2="effect1_dropShadow_388_7350" result="shape"/>
</filter>
<filter id="filter1_d_388_7350" x="114.462" y="60.2854" width="12.6414" height="13.051" filterUnits="userSpaceOnUse" color-interpolation-filters="sRGB">
<feFlood flood-opacity="0" result="BackgroundImageFix"/>
<feColorMatrix in="SourceAlpha" type="matrix" values="0 0 0 0 0 0 0 0 0 0 0 0 0 0 0 0 0 0 127 0" result="hardAlpha"/>
<feOffset dx="0.95941" dy="0.95941"/>
<feGaussianBlur stdDeviation="1.07934"/>
<feComposite in2="hardAlpha" operator="out"/>
<feColorMatrix type="matrix" values="0 0 0 0 0 0 0 0 0 0 0 0 0 0 0 0 0 0 0.25 0"/>
<feBlend mode="normal" in2="BackgroundImageFix" result="effect1_dropShadow_388_7350"/>
<feBlend mode="normal" in="SourceGraphic" in2="effect1_dropShadow_388_7350" result="shape"/>
</filter>
<filter id="filter2_d_388_7350" x="17.5956" y="58.5822" width="10.7374" height="11.781" filterUnits="userSpaceOnUse" color-interpolation-filters="sRGB">
<feFlood flood-opacity="0" result="BackgroundImageFix"/>
<feColorMatrix in="SourceAlpha" type="matrix" values="0 0 0 0 0 0 0 0 0 0 0 0 0 0 0 0 0 0 127 0" result="hardAlpha"/>
<feOffset dx="0.95941" dy="0.95941"/>
<feGaussianBlur stdDeviation="1.07934"/>
<feComposite in2="hardAlpha" operator="out"/>
<feColorMatrix type="matrix" values="0 0 0 0 0 0 0 0 0 0 0 0 0 0 0 0 0 0 0.25 0"/>
<feBlend mode="normal" in2="BackgroundImageFix" result="effect1_dropShadow_388_7350"/>
<feBlend mode="normal" in="SourceGraphic" in2="effect1_dropShadow_388_7350" result="shape"/>
</filter>
<filter id="filter3_d_388_7350" x="15.5421" y="66.3803" width="12.8554" height="9.11324" filterUnits="userSpaceOnUse" color-interpolation-filters="sRGB">
<feFlood flood-opacity="0" result="BackgroundImageFix"/>
<feColorMatrix in="SourceAlpha" type="matrix" values="0 0 0 0 0 0 0 0 0 0 0 0 0 0 0 0 0 0 127 0" result="hardAlpha"/>
<feOffset dx="0.95941" dy="0.95941"/>
<feGaussianBlur stdDeviation="1.07934"/>
<feComposite in2="hardAlpha" operator="out"/>
<feColorMatrix type="matrix" values="0 0 0 0 0 0 0 0 0 0 0 0 0 0 0 0 0 0 0.25 0"/>
<feBlend mode="normal" in2="BackgroundImageFix" result="effect1_dropShadow_388_7350"/>
<feBlend mode="normal" in="SourceGraphic" in2="effect1_dropShadow_388_7350" result="shape"/>
</filter>
<filter id="filter4_d_388_7350" x="4.98854" y="63.9824" width="12.8555" height="9.11275" filterUnits="userSpaceOnUse" color-interpolation-filters="sRGB">
<feFlood flood-opacity="0" result="BackgroundImageFix"/>
<feColorMatrix in="SourceAlpha" type="matrix" values="0 0 0 0 0 0 0 0 0 0 0 0 0 0 0 0 0 0 127 0" result="hardAlpha"/>
<feOffset dx="0.95941" dy="0.95941"/>
<feGaussianBlur stdDeviation="1.07934"/>
<feComposite in2="hardAlpha" operator="out"/>
<feColorMatrix type="matrix" values="0 0 0 0 0 0 0 0 0 0 0 0 0 0 0 0 0 0 0.25 0"/>
<feBlend mode="normal" in2="BackgroundImageFix" result="effect1_dropShadow_388_7350"/>
<feBlend mode="normal" in="SourceGraphic" in2="effect1_dropShadow_388_7350" result="shape"/>
</filter>
<filter id="filter5_d_388_7350" x="10.0255" y="65.1811" width="12.8554" height="9.11324" filterUnits="userSpaceOnUse" color-interpolation-filters="sRGB">
<feFlood flood-opacity="0" result="BackgroundImageFix"/>
<feColorMatrix in="SourceAlpha" type="matrix" values="0 0 0 0 0 0 0 0 0 0 0 0 0 0 0 0 0 0 127 0" result="hardAlpha"/>
<feOffset dx="0.95941" dy="0.95941"/>
<feGaussianBlur stdDeviation="1.07934"/>
<feComposite in2="hardAlpha" operator="out"/>
<feColorMatrix type="matrix" values="0 0 0 0 0 0 0 0 0 0 0 0 0 0 0 0 0 0 0.25 0"/>
<feBlend mode="normal" in2="BackgroundImageFix" result="effect1_dropShadow_388_7350"/>
<feBlend mode="normal" in="SourceGraphic" in2="effect1_dropShadow_388_7350" result="shape"/>
</filter>
<filter id="filter6_d_388_7350" x="7.04213" y="56.4235" width="10.7374" height="11.781" filterUnits="userSpaceOnUse" color-interpolation-filters="sRGB">
<feFlood flood-opacity="0" result="BackgroundImageFix"/>
<feColorMatrix in="SourceAlpha" type="matrix" values="0 0 0 0 0 0 0 0 0 0 0 0 0 0 0 0 0 0 127 0" result="hardAlpha"/>
<feOffset dx="0.95941" dy="0.95941"/>
<feGaussianBlur stdDeviation="1.07934"/>
<feComposite in2="hardAlpha" operator="out"/>
<feColorMatrix type="matrix" values="0 0 0 0 0 0 0 0 0 0 0 0 0 0 0 0 0 0 0.25 0"/>
<feBlend mode="normal" in2="BackgroundImageFix" result="effect1_dropShadow_388_7350"/>
<feBlend mode="normal" in="SourceGraphic" in2="effect1_dropShadow_388_7350" result="shape"/>
</filter>
<filter id="filter7_d_388_7350" x="12.079" y="57.383" width="10.7374" height="11.781" filterUnits="userSpaceOnUse" color-interpolation-filters="sRGB">
<feFlood flood-opacity="0" result="BackgroundImageFix"/>
<feColorMatrix in="SourceAlpha" type="matrix" values="0 0 0 0 0 0 0 0 0 0 0 0 0 0 0 0 0 0 127 0" result="hardAlpha"/>
<feOffset dx="0.95941" dy="0.95941"/>
<feGaussianBlur stdDeviation="1.07934"/>
<feComposite in2="hardAlpha" operator="out"/>
<feColorMatrix type="matrix" values="0 0 0 0 0 0 0 0 0 0 0 0 0 0 0 0 0 0 0.25 0"/>
<feBlend mode="normal" in2="BackgroundImageFix" result="effect1_dropShadow_388_7350"/>
<feBlend mode="normal" in="SourceGraphic" in2="effect1_dropShadow_388_7350" result="shape"/>
</filter>
<filter id="filter8_d_388_7350" x="29.7093" y="28.9897" width="71.2945" height="68.5526" filterUnits="userSpaceOnUse" color-interpolation-filters="sRGB">
<feFlood flood-opacity="0" result="BackgroundImageFix"/>
<feColorMatrix in="SourceAlpha" type="matrix" values="0 0 0 0 0 0 0 0 0 0 0 0 0 0 0 0 0 0 127 0" result="hardAlpha"/>
<feOffset dx="0.304677" dy="0.304677"/>
<feGaussianBlur stdDeviation="3.04677"/>
<feComposite in2="hardAlpha" operator="out"/>
<feColorMatrix type="matrix" values="0 0 0 0 0 0 0 0 0 0 0 0 0 0 0 0 0 0 0.25 0"/>
<feBlend mode="normal" in2="BackgroundImageFix" result="effect1_dropShadow_388_7350"/>
<feBlend mode="normal" in="SourceGraphic" in2="effect1_dropShadow_388_7350" result="shape"/>
</filter>
<linearGradient id="paint0_linear_388_7350" x1="65" y1="130" x2="65" y2="-8.71383e-06" gradientUnits="userSpaceOnUse">
<stop offset="0.0310722" stop-color="#F7BF4F"/>
<stop offset="0.776797" stop-color="#F7BF4F" stop-opacity="0"/>
</linearGradient>
<linearGradient id="paint1_linear_388_7350" x1="65" y1="0" x2="65" y2="130" gradientUnits="userSpaceOnUse">
<stop stop-color="#F7BF4F"/>
<stop offset="0.640625" stop-color="#F7BF4F" stop-opacity="0"/>
</linearGradient>
<linearGradient id="paint2_linear_388_7350" x1="0" y1="65" x2="50.0092" y2="65" gradientUnits="userSpaceOnUse">
<stop stop-color="#F7BF4F"/>
<stop offset="1" stop-color="#F7BF4F" stop-opacity="0"/>
</linearGradient>
<linearGradient id="paint3_linear_388_7350" x1="130" y1="65" x2="70.0369" y2="65" gradientUnits="userSpaceOnUse">
<stop stop-color="#F7BF4F"/>
<stop offset="1" stop-color="#F7BF4F" stop-opacity="0"/>
</linearGradient>
<linearGradient id="paint4_linear_388_7350" x1="65" y1="79.631" x2="65" y2="-2.03878" gradientUnits="userSpaceOnUse">
<stop stop-color="white"/>
<stop offset="1" stop-color="white" stop-opacity="0"/>
</linearGradient>
<linearGradient id="paint5_linear_388_7350" x1="65" y1="79.631" x2="65" y2="-2.03878" gradientUnits="userSpaceOnUse">
<stop stop-color="white"/>
<stop offset="1" stop-color="white" stop-opacity="0"/>
</linearGradient>
<linearGradient id="paint6_linear_388_7350" x1="65" y1="79.631" x2="65" y2="-2.03878" gradientUnits="userSpaceOnUse">
<stop stop-color="white"/>
<stop offset="1" stop-color="white" stop-opacity="0"/>
</linearGradient>
<linearGradient id="paint7_linear_388_7350" x1="65" y1="79.631" x2="65" y2="-2.03878" gradientUnits="userSpaceOnUse">
<stop stop-color="white"/>
<stop offset="1" stop-color="white" stop-opacity="0"/>
</linearGradient>
<linearGradient id="paint8_linear_388_7350" x1="65" y1="79.631" x2="65" y2="-2.03878" gradientUnits="userSpaceOnUse">
<stop stop-color="white"/>
<stop offset="1" stop-color="white" stop-opacity="0"/>
</linearGradient>
<linearGradient id="paint9_linear_388_7350" x1="65" y1="79.631" x2="65" y2="-2.03878" gradientUnits="userSpaceOnUse">
<stop stop-color="white"/>
<stop offset="1" stop-color="white" stop-opacity="0"/>
</linearGradient>
<linearGradient id="paint10_linear_388_7350" x1="65" y1="79.631" x2="65" y2="-2.03878" gradientUnits="userSpaceOnUse">
<stop stop-color="white"/>
<stop offset="1" stop-color="white" stop-opacity="0"/>
</linearGradient>
</defs>
</svg>
