<svg width="375" height="103" viewBox="0 0 375 103" fill="none" xmlns="http://www.w3.org/2000/svg">
<path d="M29.7 84.6C24.1 84.6 19.0667 83.5667 14.6 81.5C10.1333 79.4333 6.56667 76.4 3.9 72.4C1.3 68.3333 0 63.4333 0 57.7C0 53.7 0.7 49.3667 2.1 44.7C5.16667 34.7 9.8 27.5 16 23.1C22.2 18.6333 28.8333 16.4 35.9 16.4C39.7 16.4 43.0667 16.9667 46 18.1C48.9333 19.2333 51.6333 20.8667 54.1 23L56.8 20.9C58.6 19.5 60.1 18.5333 61.3 18C62.5667 17.4667 63.9667 17.2 65.5 17.2C67.1667 17.2 68.5 17.5667 69.5 18.3C70.5 19.0333 71 20.1 71 21.5C71 22.2333 70.8667 22.9667 70.6 23.7L65 39.3C64.4 41.1 63.6667 42.3667 62.8 43.1C62 43.8333 60.7667 44.2 59.1 44.2C57.3667 44.2 55.9333 43.6 54.8 42.4C53.7333 41.1333 52.5 39 51.1 36C49.5 32.8667 48.2 30.8 47.2 29.8C46.2 28.8 44.7333 28.3 42.8 28.3C40.0667 28.3 37.4333 30 34.9 33.4C32.3667 36.7333 30.0667 41.7667 28 48.5C26.2667 54.1667 25.4 58.9 25.4 62.7C25.4 66.0333 26.0333 68.5333 27.3 70.2C28.5667 71.8 30.2667 72.6 32.4 72.6C35.5333 72.6 38.1 71.9 40.1 70.5C42.1667 69.1 44.2667 67.2 46.4 64.8C47.7333 63.3333 48.8 62.2667 49.6 61.6C50.4667 60.8667 51.3667 60.5 52.3 60.5C53.5 60.5 54.7667 61.1 56.1 62.3C57.4333 63.5 58.0667 64.7 58 65.9C58.0667 67.3667 56.8667 69.6333 54.4 72.7C52 75.7667 48.6333 78.5333 44.3 81C40.0333 83.4 35.1667 84.6 29.7 84.6Z" fill="black"/>
<path d="M102.838 31.1C111.905 31.1 118.572 32.9333 122.838 36.6C127.172 40.2667 129.338 45.0667 129.338 51C129.338 53 129.072 55.2333 128.538 57.7C127.272 63.1667 124.905 67.9667 121.438 72.1C117.972 76.1667 113.705 79.3333 108.638 81.6C103.638 83.8 98.2049 84.9 92.3383 84.9C83.0716 84.9 76.2049 83.0667 71.7383 79.4C67.3383 75.6667 65.1383 70.7333 65.1383 64.6C65.1383 62.5333 65.4049 60.2333 65.9383 57.7C67.2049 52.5 69.6049 47.9 73.1383 43.9C76.7383 39.8333 81.1049 36.7 86.2383 34.5C91.4383 32.2333 96.9716 31.1 102.838 31.1ZM102.538 40C101.138 40 99.6383 41.2667 98.0383 43.8C96.505 46.2667 94.6716 50.9667 92.5383 57.9C90.405 64.8333 89.3383 69.7 89.3383 72.5C89.3383 73.9667 89.5716 74.9667 90.0383 75.5C90.505 75.9667 91.1383 76.2 91.9383 76.2C93.3383 76.3333 94.7716 75.1333 96.2383 72.6C97.7716 70.0667 99.6716 65.1333 101.938 57.8C104.005 51.3333 105.038 46.6333 105.038 43.7C105.038 42.3 104.805 41.3333 104.338 40.8C103.938 40.2667 103.338 40 102.538 40Z" fill="black"/>
<path d="M189.163 70.2C189.03 70.7333 188.963 71.1333 188.963 71.4C188.963 71.8667 189.063 72.2333 189.263 72.5C189.53 72.7667 189.863 72.9 190.263 72.9C191.063 72.9 191.73 72.5667 192.263 71.9C192.863 71.1667 193.263 70.8 193.463 70.8C193.797 70.8 194.063 71.0333 194.263 71.5C194.53 71.9 194.663 72.4 194.663 73C194.73 74.8667 194.063 76.7333 192.663 78.6C191.263 80.4 189.297 81.9 186.763 83.1C184.23 84.3 181.397 84.9 178.263 84.9C174.33 84.9 171.197 84.1 168.863 82.5C166.53 80.9 165.03 78.8 164.363 76.2C161.963 78.8667 159.297 80.9 156.363 82.3C153.497 83.6333 150.563 84.3 147.563 84.3C142.897 84.3 138.963 83.1667 135.763 80.9C132.63 78.5667 131.063 75.3333 131.063 71.2C131.063 69.3333 131.397 67.4 132.063 65.4L138.463 44.5C138.663 43.9 138.763 43.4 138.763 43C138.763 42.2667 138.597 41.7 138.263 41.3C137.93 40.8333 137.43 40.3667 136.763 39.9C136.097 39.3667 135.63 38.9 135.363 38.5C135.097 38.1 135.063 37.5667 135.263 36.9C135.663 35.3667 137.763 34.0333 141.563 32.9C145.363 31.7 149.33 31.1 153.463 31.1C157.33 31.1 160.163 31.8333 161.963 33.3C163.763 34.7667 164.663 36.7667 164.663 39.3C164.663 40.8333 164.43 42.3 163.963 43.7L157.663 64.5C157.397 65.2333 157.263 65.9333 157.263 66.6C157.263 67.5333 157.53 68.2333 158.063 68.7C158.597 69.1667 159.297 69.4 160.163 69.4C161.43 69.4 162.463 69.0333 163.263 68.3C164.063 67.5667 164.863 66.3333 165.663 64.6L171.763 44.5C171.963 43.9 172.063 43.4 172.063 43C172.063 42.2667 171.897 41.7 171.563 41.3C171.23 40.8333 170.763 40.3667 170.163 39.9C169.497 39.3667 169.03 38.9 168.763 38.5C168.497 38.1 168.463 37.5667 168.663 36.9C168.997 35.3667 171.063 34.0333 174.863 32.9C178.663 31.7 182.63 31.1 186.763 31.1C190.63 31.1 193.463 31.8333 195.263 33.3C197.13 34.7667 198.063 36.7333 198.063 39.2C198.063 40.4667 197.797 41.9667 197.263 43.7L189.163 70.2Z" fill="black"/>
<path d="M250.618 30.7C255.751 30.7 259.785 32.4 262.718 35.8C265.651 39.2 267.118 43.8333 267.118 49.7C267.118 52.8333 266.685 56.1333 265.818 59.6C263.818 67.8667 260.085 74.1667 254.618 78.5C249.151 82.7667 242.818 84.9 235.618 84.9C231.018 84.9 227.018 83.9333 223.618 82L220.418 92.7C220.151 93.4333 220.018 94.1333 220.018 94.8C220.018 95.5333 220.185 96.1333 220.518 96.6C220.851 97.1333 221.285 97.6333 221.818 98.1C222.351 98.6333 222.685 99.0667 222.818 99.4C223.018 99.7333 223.051 100.133 222.918 100.6C222.651 101.467 222.018 102.067 221.018 102.4C220.018 102.8 218.485 103 216.418 103H193.518C191.785 103 190.551 102.7 189.818 102.1C189.018 101.567 188.785 100.867 189.118 100C189.251 99.4667 189.485 99.0333 189.818 98.7C190.151 98.3667 190.618 98.0667 191.218 97.8C192.218 97.1333 193.018 96.4333 193.618 95.7C194.218 95.0333 194.751 93.9333 195.218 92.4L209.818 44.5C210.018 43.9 210.118 43.4 210.118 43C210.118 42.2667 209.951 41.7 209.618 41.3C209.285 40.8333 208.785 40.3667 208.118 39.9C207.451 39.3667 206.985 38.9 206.718 38.5C206.451 38.1 206.418 37.5667 206.618 36.9C207.018 35.3667 209.118 34.0333 212.918 32.9C216.718 31.7 220.685 31.1 224.818 31.1C227.751 31.1 230.151 31.8333 232.018 33.3C233.951 34.7667 235.051 36.8 235.318 39.4C239.851 33.6 244.951 30.7 250.618 30.7ZM239.018 60.4C240.618 54.4667 241.418 50.3667 241.418 48.1C241.418 46.7 241.185 45.8 240.718 45.4C240.318 44.9333 239.718 44.7 238.918 44.7C238.318 44.7 237.551 45 236.618 45.6C235.685 46.1333 234.751 47.0667 233.818 48.4L225.918 74.6C226.718 75.4 227.685 75.8 228.818 75.8C230.618 75.8 232.318 74.8 233.918 72.8C235.585 70.7333 237.285 66.6 239.018 60.4Z" fill="black"/>
<path d="M293.759 31.1C297.625 31.1 300.459 31.8333 302.259 33.3C304.059 34.7667 304.959 36.7667 304.959 39.3C304.959 40.8333 304.725 42.3 304.259 43.7L295.059 73.6C294.859 74.4 294.759 75.1 294.759 75.7C294.759 76.5667 294.925 77.2667 295.259 77.8C295.592 78.2667 296.059 78.7333 296.659 79.2C297.125 79.6667 297.459 80.0667 297.659 80.4C297.859 80.6667 297.892 81.0333 297.759 81.5C297.425 82.3667 296.759 83 295.759 83.4C294.759 83.8 293.225 84 291.159 84H268.359C266.625 84 265.359 83.7333 264.559 83.2C263.759 82.6 263.492 81.8333 263.759 80.9C264.025 80.1 264.725 79.4 265.859 78.8C266.859 78.2667 267.692 77.6333 268.359 76.9C269.025 76.1667 269.592 75 270.059 73.4L278.759 44.5C278.959 43.9 279.059 43.4 279.059 43C279.059 42.2667 278.892 41.7 278.559 41.3C278.225 40.8333 277.725 40.3667 277.059 39.9C276.392 39.3667 275.925 38.9 275.659 38.5C275.392 38.1 275.359 37.5667 275.559 36.9C275.959 35.3667 278.059 34.0333 281.859 32.9C285.659 31.7 289.625 31.1 293.759 31.1Z" fill="black"/>
<path d="M359.98 69.6C359.846 70.1333 359.78 70.5 359.78 70.7C359.78 71.1667 359.913 71.5333 360.18 71.8C360.446 72.0667 360.78 72.2 361.18 72.2C361.98 72.2 362.646 71.8667 363.18 71.2C363.78 70.4667 364.18 70.1 364.38 70.1C364.713 70.1 364.98 70.3333 365.18 70.8C365.38 71.2667 365.48 71.8 365.48 72.4C365.546 74.2 364.846 76.0333 363.38 77.9C361.98 79.7667 360.08 81.3 357.68 82.5C355.28 83.7 352.68 84.3 349.88 84.3C346.546 84.3 343.646 83.6667 341.18 82.4C338.713 81.1333 337.013 79.4667 336.08 77.4C334.28 79.7333 332.213 81.4667 329.88 82.6C327.546 83.7333 325.08 84.3 322.48 84.3C319.413 84.3 316.546 83.5333 313.88 82C311.28 80.4667 309.18 78.3 307.58 75.5C306.046 72.6333 305.28 69.4 305.28 65.8C305.28 59.7333 306.413 54.0333 308.68 48.7C311.013 43.3 314.246 38.9667 318.38 35.7C322.513 32.3667 327.213 30.7 332.48 30.7C335.346 30.7 337.78 31.0333 339.78 31.7C341.846 32.3667 343.713 33.3667 345.38 34.7L348.78 23.5C348.98 22.9 349.08 22.4 349.08 22C349.08 21.2667 348.88 20.6667 348.48 20.2C348.146 19.7333 347.68 19.2667 347.08 18.8C346.413 18.2667 345.913 17.8 345.58 17.4C345.313 17 345.28 16.4667 345.48 15.8C345.88 14.2667 347.98 12.9333 351.78 11.8C355.58 10.6667 359.546 10.1 363.68 10.1C367.546 10.1 370.38 10.8333 372.18 12.3C374.046 13.7667 374.98 15.7667 374.98 18.3C374.98 19.7667 374.746 21.2 374.28 22.6L359.98 69.6ZM343.28 41.5C342.213 40.5667 341.046 40.1 339.78 40.1C337.846 40.1 335.946 41.5333 334.08 44.4C332.213 47.2667 330.713 50.7333 329.58 54.8C328.446 58.8667 327.913 62.5333 327.98 65.8C327.98 69.4667 329.18 71.3 331.58 71.3C332.446 71.3 333.18 70.9667 333.78 70.3C334.38 69.5667 334.946 68.4 335.48 66.8L343.28 41.5Z" fill="black"/>
<path d="M280.709 10.669L299.062 5.75142L303.464 22.1822L285.112 27.0998L280.709 10.669Z" fill="black"/>
<path d="M289.402 8.33961L290.368 8.08079L294.771 24.5116L293.805 24.7704L289.402 8.33961Z" fill="white"/>
<path d="M283.026 19.3168L282.795 18.452L301.147 13.5344L301.379 14.3992L283.026 19.3168Z" fill="white"/>
<path d="M296.028 1.22616C297.055 1.99927 296.561 4.05247 294.925 5.81212C293.289 7.57177 291.13 8.37152 290.103 7.59842C289.076 6.82531 289.57 4.77211 291.206 3.01246C292.842 1.25281 295.001 0.453056 296.028 1.22616Z" fill="black"/>
<path d="M281.18 5.20482C280.677 6.38786 282.131 7.9191 284.428 8.62493C286.725 9.33076 288.994 8.9439 289.497 7.76086C290 6.57781 288.546 5.04657 286.249 4.34074C283.952 3.63491 281.683 4.02177 281.18 5.20482Z" fill="black"/>
</svg>
