<svg width="1091" height="1218" viewBox="0 0 1091 1218" fill="none" xmlns="http://www.w3.org/2000/svg">
<path d="M321.157 300.109C179.969 311.568 44.037 421.568 5.56303 575.479C-16.437 713.698 42.3182 854.62 132.339 948.062C256.704 1088.93 419.667 1196.71 598.777 1217.06C750.766 1224.07 892.126 1069.67 885.251 900.156C892.318 639.859 724.193 384.609 495.261 321.906C438.792 304.109 379.719 297.739 321.157 300.109Z" fill="#B3C1A1"/>
<path d="M448.282 61.7864C309.803 91.5677 189.386 218.365 171.339 375.979C167.573 515.885 244.219 647.937 345.672 728.839C487.365 852.266 663.006 937.854 843.235 934.656C994.839 921.776 1114.84 750.25 1085.89 583.083C1058.91 324.094 858.907 92.9687 623.745 60.6718C565.438 50.401 506.037 51.7916 448.282 61.7864Z" fill="#B3C1A1" fill-opacity="0.498"/>
<mask id="mask0_377_3864" style="mask-type:luminance" maskUnits="userSpaceOnUse" x="529" y="0" width="415" height="150">
<path d="M529.865 0.176758H943.198V149.333H529.865V0.176758Z" fill="white"/>
</mask>
<g mask="url(#mask0_377_3864)">
<path fill-rule="evenodd" clip-rule="evenodd" d="M531.183 0.171875H942.245V148.703H531.183" fill="#B68162"/>
</g>
<path fill-rule="evenodd" clip-rule="evenodd" d="M546.375 14.542H927.053V148.703H546.375" fill="#825032"/>
<path fill-rule="evenodd" clip-rule="evenodd" d="M531.183 140.823H942.24V487.099H531.183" fill="#F0D7AC"/>
<path fill-rule="evenodd" clip-rule="evenodd" d="M781.823 253.964H904.485V479.323H781.823V253.964Z" fill="#825032"/>
<path fill-rule="evenodd" clip-rule="evenodd" d="M557.594 254.692H749.36V387.479H557.594V254.692Z" fill="white"/>
<mask id="mask1_377_3864" style="mask-type:luminance" maskUnits="userSpaceOnUse" x="473" y="92" width="101" height="136">
<path d="M473.511 92H573.865V228H473.511V92Z" fill="white"/>
</mask>
<g mask="url(#mask1_377_3864)">
<path fill-rule="evenodd" clip-rule="evenodd" d="M516.438 92.8076L473.568 202.948C477.011 217.235 492.771 227.506 510.141 227.516C527.516 227.506 543.219 217.235 546.667 202.948V196.985C546.667 196.943 546.667 196.907 546.683 196.865C546.683 196.745 546.683 196.625 546.667 196.506L573.506 92.8076H516.438Z" fill="#EA4729"/>
</g>
<path fill-rule="evenodd" clip-rule="evenodd" d="M573.506 92.8076L546.667 202.948C550.115 217.235 565.87 227.506 583.245 227.516C600.62 227.506 616.323 217.235 619.771 202.948V196.985C619.771 196.943 619.771 196.907 619.787 196.865C619.787 196.745 619.787 196.625 619.771 196.506L630.49 92.8076H573.506Z" fill="white"/>
<path fill-rule="evenodd" clip-rule="evenodd" d="M630.49 92.8076L619.771 202.948C623.219 217.235 638.974 227.506 656.344 227.516C673.719 227.506 689.422 217.235 692.87 202.948V196.985C692.87 196.943 692.87 196.907 692.891 196.865C692.891 196.745 692.891 196.625 692.87 196.506V92.8076H630.49Z" fill="#EA4729"/>
<path fill-rule="evenodd" clip-rule="evenodd" d="M692.87 92.8076V202.948C696.318 217.235 712.073 227.506 729.448 227.516C746.823 227.506 762.527 217.235 765.975 202.948V196.985C765.975 196.943 765.975 196.907 765.99 196.865C765.99 196.745 765.99 196.625 765.975 196.506V92.8076H692.87Z" fill="white"/>
<path fill-rule="evenodd" clip-rule="evenodd" d="M765.974 92.8076V202.948C769.422 217.235 785.177 227.506 802.552 227.516C819.922 227.506 835.631 217.235 839.073 202.948V196.985C839.073 196.943 839.073 196.907 839.094 196.865C839.094 196.745 839.094 196.625 839.073 196.506L825.787 92.8076H765.974Z" fill="#EA4729"/>
<path fill-rule="evenodd" clip-rule="evenodd" d="M825.787 92.8076L839.073 202.948C842.521 217.235 858.282 227.506 875.651 227.516C893.026 227.506 908.73 217.235 912.177 202.948V196.985C912.177 196.943 912.177 196.907 912.193 196.865C912.193 196.745 912.193 196.625 912.177 196.506L886.026 92.8076H825.787Z" fill="white"/>
<mask id="mask2_377_3864" style="mask-type:luminance" maskUnits="userSpaceOnUse" x="885" y="92" width="101" height="136">
<path d="M885.865 92H985.511V228H885.865V92Z" fill="white"/>
</mask>
<g mask="url(#mask2_377_3864)">
<path fill-rule="evenodd" clip-rule="evenodd" d="M886.027 92.8076L912.178 202.948C915.626 217.235 931.381 227.506 948.756 227.516C966.131 227.506 981.834 217.235 985.282 202.948V196.985C985.282 196.943 985.298 196.907 985.298 196.865C985.298 196.745 985.298 196.625 985.282 196.506L945.063 92.8076H886.027Z" fill="#EA4729"/>
</g>
<path fill-rule="evenodd" clip-rule="evenodd" d="M654.777 292.052L631.86 309.067H623.693C622.407 309.067 621.37 310.104 621.37 311.39V341.182C621.37 342.468 622.407 343.5 623.693 343.5H685.876C687.162 343.5 688.198 342.468 688.198 341.182V311.39C688.198 310.104 687.162 309.067 685.876 309.067H677.391L654.777 292.052ZM654.766 293.396L675.605 309.067H633.662L654.766 293.396Z" fill="#825032"/>
<mask id="mask3_377_3864" style="mask-type:luminance" maskUnits="userSpaceOnUse" x="487" y="469" width="499" height="25">
<path d="M487.198 469.333H985.511V493.177H487.198V469.333Z" fill="white"/>
</mask>
<g mask="url(#mask3_377_3864)">
<path fill-rule="evenodd" clip-rule="evenodd" d="M487.995 469.344H985.433V493.167H487.995" fill="#825032"/>
</g>
<path fill-rule="evenodd" clip-rule="evenodd" d="M791.761 264.875H894.547V400.979H791.761V264.875Z" fill="#F0D7AC"/>
<path fill-rule="evenodd" clip-rule="evenodd" d="M551.016 377.776H753.24V390.151H551.016V377.776Z" fill="#825032"/>
<path fill-rule="evenodd" clip-rule="evenodd" d="M892.756 380.641C892.756 383.771 890.568 386.313 887.87 386.313C885.167 386.313 882.979 383.771 882.979 380.641C882.979 377.51 885.167 374.969 887.87 374.969C890.568 374.969 892.756 377.51 892.756 380.641Z" fill="#825032"/>
<path d="M681.688 79.292C678.943 79.292 676.417 78.5889 674.1 77.1774C671.823 75.7816 670.006 73.917 668.646 71.5837C667.287 69.2503 666.605 66.6878 666.605 63.891V60.6982C666.605 59.4847 667.204 58.8753 668.396 58.8753H676.214C677.36 58.8753 677.933 59.4847 677.933 60.6982V63.891C677.933 65.0264 678.308 66.0003 679.053 66.8024C679.803 67.6097 680.678 68.0107 681.688 68.0107C682.709 68.0107 683.594 67.5993 684.344 66.7764C685.089 65.9482 685.464 64.9899 685.464 63.891C685.464 62.7503 684.594 61.6826 682.844 60.6826C682.48 60.4587 682.021 60.1878 681.454 59.8649C680.886 59.5472 680.209 59.1722 679.428 58.7451C678.631 58.3128 677.855 57.8857 677.105 57.4639C676.36 57.0472 675.631 56.641 674.922 56.2451C672.141 54.6149 670.068 52.5576 668.709 50.0837C667.35 47.6097 666.672 44.8441 666.672 41.7816C666.672 38.9326 667.381 36.3493 668.792 34.0316C670.188 31.7712 672.016 29.9639 674.287 28.6253C676.553 27.292 679.016 26.6201 681.688 26.6201C684.417 26.6201 686.928 27.2972 689.225 28.6566C691.495 30.0264 693.313 31.8545 694.678 34.1305C696.042 36.4066 696.73 38.9587 696.73 41.7816V47.4847C696.73 48.6305 696.157 49.2035 695.011 49.2035H687.188C686.042 49.2035 685.464 48.6357 685.464 47.4951L685.402 41.792C685.402 40.5576 685.032 39.5732 684.292 38.8337C683.558 38.0993 682.688 37.7295 681.688 37.7295C680.672 37.7295 679.797 38.1305 679.053 38.9222C678.303 39.7191 677.933 40.6722 677.933 41.7816C677.933 43.0212 678.183 44.0368 678.688 44.8337C679.193 45.6253 680.183 46.4222 681.667 47.2191C681.855 47.3128 682.282 47.5472 682.948 47.9118C683.615 48.2764 684.344 48.6826 685.146 49.1201C685.948 49.5628 686.678 49.9535 687.323 50.3024C687.975 50.6462 688.37 50.8545 688.516 50.9274C691.032 52.3337 693.042 54.0837 694.542 56.1774C696.042 58.266 696.797 60.8389 696.797 63.891C696.797 66.8024 696.115 69.4222 694.761 71.7555C693.386 74.0732 691.558 75.9118 689.277 77.266C686.995 78.6149 684.464 79.292 681.688 79.292Z" fill="white"/>
<path d="M713.547 78.6143H705.662C704.511 78.6143 703.938 78.0205 703.938 76.8278L704.011 29.057C704.011 27.9059 704.605 27.333 705.797 27.333H713.547C714.74 27.333 715.334 27.9111 715.334 29.057L715.271 46.5205H722.803V29.057C722.803 27.9059 723.375 27.333 724.527 27.333H732.277C733.464 27.333 734.063 27.9059 734.063 29.057L734.198 76.8278C734.198 78.0205 733.599 78.6143 732.407 78.6143H724.589C723.402 78.6143 722.803 78.0205 722.803 76.8278V57.833H715.266V76.8278C715.266 78.0205 714.693 78.6143 713.547 78.6143Z" fill="white"/>
<path d="M756.526 79.2913C753.787 79.2913 751.256 78.5882 748.938 77.1768C746.672 75.7861 744.844 73.9216 743.459 71.583C742.073 69.2549 741.381 66.6872 741.381 63.8903L741.448 41.8538C741.448 39.0049 742.136 36.4372 743.521 34.1507C744.865 31.8643 746.693 30.0257 748.995 28.6351C751.297 27.2445 753.808 26.5518 756.526 26.5518C759.339 26.5518 761.865 27.2445 764.115 28.6299C766.355 30.0049 768.157 31.8434 769.521 34.1559C770.886 36.4632 771.568 39.0309 771.568 41.8538L771.636 63.8903C771.636 66.682 770.959 69.2497 769.605 71.5778C768.235 73.9163 766.412 75.7861 764.131 77.1924C761.844 78.5882 759.313 79.2913 756.526 79.2913ZM756.526 68.0101C757.506 68.0101 758.381 67.5882 759.151 66.7445C759.927 65.8955 760.313 64.9476 760.313 63.8955L760.24 41.859C760.24 40.6924 759.886 39.7236 759.183 38.9528C758.48 38.1872 757.594 37.8018 756.526 37.8018C755.506 37.8018 754.62 38.1768 753.881 38.932C753.146 39.6872 752.776 40.6611 752.776 41.8538V63.8903C752.776 65.0257 753.146 65.9997 753.896 66.8018C754.641 67.6091 755.516 68.0101 756.526 68.0101Z" fill="white"/>
<path d="M788.797 78.6143H780.98C779.787 78.6143 779.188 78.0205 779.188 76.8278L779.329 29.057C779.329 27.9059 779.902 27.333 781.047 27.333H794.433C799.11 27.333 802.823 28.7757 805.584 31.6559C808.339 34.5361 809.719 38.4007 809.719 43.2445C809.719 46.7445 809.011 49.8174 807.61 52.458C806.167 55.083 804.292 57.1195 801.985 58.5726C799.678 60.0257 797.162 60.7549 794.433 60.7549H790.584V76.8278C790.584 78.0205 789.985 78.6143 788.797 78.6143ZM794.443 38.4788L790.584 38.5309V49.4424H794.433C795.433 49.4424 796.349 48.8903 797.193 47.7966C798.042 46.6976 798.464 45.182 798.464 43.2445C798.464 41.7809 798.105 40.6247 797.386 39.7705C796.667 38.9111 795.688 38.4788 794.443 38.4788Z" fill="white"/>
<path d="M397.24 958.698V1002.02C397.214 1011.58 389.459 1019.32 379.886 1019.34H319.146C309.573 1019.32 301.818 1011.58 301.792 1002.02V958.698H397.24Z" fill="#EE194F"/>
<path d="M301.792 958.698H397.24V993.354H301.792V958.698Z" fill="#B2123B"/>
<path d="M327.823 958.698V976.026C327.792 985.584 320.037 993.328 310.469 993.354H275.756C275.771 987.485 274.928 981.646 273.24 976.026C271.433 969.818 268.589 963.959 264.823 958.698H327.823Z" fill="#4361B1"/>
<path d="M327.823 958.698V976.026H273.24C271.433 969.818 268.589 963.959 264.823 958.698H327.823Z" fill="#5980EE"/>
<mask id="mask4_377_3864" style="mask-type:luminance" maskUnits="userSpaceOnUse" x="93" y="958" width="73" height="37">
<path d="M93.5317 958.667H165.865V994.667H93.5317V958.667Z" fill="white"/>
</mask>
<g mask="url(#mask4_377_3864)">
<path d="M165.209 958.698C161.443 963.959 158.599 969.818 156.787 976.026C155.105 981.646 154.256 987.485 154.271 993.354H110.886C101.303 993.354 93.5317 985.594 93.5317 976.026C93.5317 966.459 101.303 958.698 110.886 958.698H165.209Z" fill="#5980EE"/>
</g>
<mask id="mask5_377_3864" style="mask-type:luminance" maskUnits="userSpaceOnUse" x="93" y="976" width="65" height="19">
<path d="M93.5317 976H157.865V994.667H93.5317V976Z" fill="white"/>
</mask>
<g mask="url(#mask5_377_3864)">
<path d="M156.792 976.026C155.105 981.646 154.256 987.485 154.277 993.354H110.886C101.313 993.328 93.5578 985.584 93.5317 976.026H156.792Z" fill="#4361B1"/>
</g>
<mask id="mask6_377_3864" style="mask-type:luminance" maskUnits="userSpaceOnUse" x="161" y="941" width="107" height="105">
<path d="M161.865 941.333H267.198V1045.41H161.865V941.333Z" fill="white"/>
</mask>
<g mask="url(#mask6_377_3864)">
<path d="M267.079 993.354C267.079 995.057 266.995 996.755 266.829 998.447C266.662 1000.14 266.412 1001.82 266.079 1003.49C265.745 1005.17 265.334 1006.81 264.839 1008.44C264.344 1010.07 263.771 1011.67 263.115 1013.24C262.464 1014.82 261.735 1016.35 260.933 1017.86C260.131 1019.36 259.25 1020.82 258.308 1022.23C257.36 1023.65 256.344 1025.01 255.261 1026.33C254.183 1027.65 253.037 1028.91 251.829 1030.11C250.625 1031.31 249.365 1032.46 248.047 1033.54C246.724 1034.61 245.36 1035.63 243.943 1036.57C242.521 1037.52 241.063 1038.4 239.558 1039.2C238.053 1040 236.516 1040.73 234.938 1041.38C233.365 1042.03 231.761 1042.6 230.131 1043.1C228.495 1043.59 226.844 1044 225.172 1044.34C223.5 1044.67 221.818 1044.92 220.12 1045.09C218.422 1045.25 216.719 1045.34 215.016 1045.34C213.308 1045.34 211.61 1045.25 209.912 1045.09C208.214 1044.92 206.532 1044.67 204.86 1044.34C203.188 1044 201.532 1043.59 199.902 1043.1C198.271 1042.6 196.667 1042.03 195.089 1041.38C193.516 1040.73 191.974 1040 190.474 1039.2C188.969 1038.4 187.506 1037.52 186.089 1036.57C184.672 1035.63 183.303 1034.61 181.985 1033.54C180.667 1032.46 179.407 1031.31 178.198 1030.11C176.995 1028.91 175.849 1027.65 174.771 1026.33C173.688 1025.01 172.672 1023.65 171.724 1022.23C170.777 1020.82 169.902 1019.36 169.099 1017.86C168.297 1016.35 167.568 1014.82 166.912 1013.24C166.261 1011.67 165.688 1010.07 165.193 1008.44C164.698 1006.81 164.282 1005.17 163.954 1003.49C163.62 1001.82 163.37 1000.14 163.204 998.447C163.037 996.755 162.954 995.057 162.954 993.354C162.954 991.65 163.037 989.952 163.204 988.26C163.37 986.562 163.62 984.88 163.954 983.213C164.282 981.541 164.698 979.89 165.193 978.265C165.688 976.635 166.261 975.031 166.912 973.458C167.568 971.885 168.297 970.348 169.099 968.848C169.902 967.348 170.777 965.89 171.724 964.473C172.672 963.057 173.688 961.692 174.771 960.374C175.849 959.057 176.995 957.801 178.198 956.593C179.407 955.39 180.667 954.249 181.985 953.171C183.303 952.088 184.672 951.077 186.089 950.13C187.506 949.187 188.969 948.312 190.474 947.51C191.974 946.708 193.516 945.979 195.089 945.327C196.667 944.676 198.271 944.104 199.902 943.609C201.532 943.114 203.188 942.702 204.86 942.369C206.532 942.036 208.214 941.786 209.912 941.619C211.61 941.452 213.308 941.369 215.016 941.369C216.719 941.369 218.422 941.452 220.12 941.619C221.818 941.786 223.5 942.036 225.172 942.369C226.844 942.702 228.495 943.114 230.131 943.609C231.761 944.104 233.365 944.676 234.938 945.327C236.516 945.979 238.053 946.708 239.558 947.51C241.063 948.312 242.521 949.187 243.943 950.13C245.36 951.077 246.724 952.088 248.047 953.171C249.365 954.249 250.625 955.39 251.829 956.593C253.037 957.801 254.183 959.057 255.261 960.374C256.344 961.692 257.36 963.057 258.308 964.473C259.25 965.89 260.131 967.348 260.933 968.848C261.735 970.348 262.464 971.885 263.115 973.458C263.771 975.031 264.344 976.635 264.839 978.265C265.334 979.89 265.745 981.541 266.079 983.213C266.412 984.88 266.662 986.562 266.829 988.26C266.995 989.952 267.079 991.65 267.079 993.354Z" fill="#283640"/>
</g>
<path d="M241.047 993.354C241.047 994.203 241.006 995.052 240.922 995.901C240.839 996.75 240.714 997.589 240.547 998.422C240.381 999.26 240.172 1000.08 239.928 1000.9C239.678 1001.71 239.391 1002.52 239.068 1003.3C238.74 1004.09 238.375 1004.85 237.974 1005.6C237.573 1006.35 237.136 1007.08 236.662 1007.79C236.188 1008.5 235.678 1009.18 235.141 1009.84C234.599 1010.5 234.027 1011.13 233.422 1011.73C232.818 1012.33 232.188 1012.91 231.532 1013.44C230.87 1013.98 230.188 1014.49 229.48 1014.96C228.771 1015.44 228.037 1015.88 227.287 1016.28C226.537 1016.68 225.766 1017.04 224.98 1017.36C224.188 1017.69 223.386 1017.98 222.573 1018.22C221.756 1018.47 220.933 1018.68 220.094 1018.84C219.256 1019.01 218.417 1019.14 217.568 1019.22C216.719 1019.3 215.87 1019.34 215.016 1019.34C214.162 1019.34 213.313 1019.3 212.464 1019.22C211.615 1019.14 210.771 1019.01 209.938 1018.84C209.099 1018.68 208.277 1018.47 207.459 1018.22C206.641 1017.98 205.839 1017.69 205.053 1017.36C204.266 1017.04 203.495 1016.68 202.745 1016.28C201.99 1015.88 201.261 1015.44 200.553 1014.96C199.844 1014.49 199.162 1013.98 198.5 1013.44C197.844 1012.91 197.209 1012.33 196.61 1011.73C196.006 1011.13 195.433 1010.5 194.891 1009.84C194.349 1009.18 193.844 1008.5 193.37 1007.79C192.896 1007.08 192.459 1006.35 192.058 1005.6C191.657 1004.85 191.292 1004.09 190.964 1003.3C190.641 1002.52 190.349 1001.71 190.105 1000.9C189.855 1000.08 189.652 999.26 189.485 998.422C189.318 997.589 189.193 996.75 189.11 995.901C189.027 995.052 188.985 994.203 188.985 993.354C188.985 992.5 189.027 991.651 189.11 990.807C189.193 989.958 189.318 989.12 189.485 988.281C189.652 987.448 189.855 986.625 190.105 985.807C190.349 984.995 190.641 984.193 190.964 983.406C191.292 982.62 191.657 981.854 192.058 981.099C192.459 980.349 192.896 979.62 193.37 978.911C193.844 978.203 194.349 977.521 194.891 976.865C195.433 976.208 196.006 975.578 196.61 974.974C197.209 974.375 197.844 973.802 198.5 973.26C199.162 972.724 199.844 972.214 200.553 971.745C201.261 971.271 201.99 970.833 202.745 970.432C203.495 970.031 204.266 969.667 205.053 969.339C205.839 969.016 206.641 968.729 207.459 968.479C208.277 968.234 209.099 968.026 209.938 967.859C210.771 967.693 211.615 967.573 212.464 967.49C213.313 967.401 214.162 967.359 215.016 967.359C215.87 967.359 216.719 967.401 217.568 967.49C218.417 967.573 219.256 967.693 220.094 967.859C220.933 968.026 221.756 968.234 222.573 968.479C223.386 968.729 224.188 969.016 224.98 969.339C225.766 969.667 226.537 970.031 227.287 970.432C228.037 970.833 228.771 971.271 229.48 971.745C230.188 972.214 230.87 972.724 231.532 973.26C232.188 973.802 232.818 974.375 233.422 974.974C234.027 975.578 234.599 976.208 235.141 976.865C235.678 977.521 236.188 978.203 236.662 978.911C237.136 979.62 237.573 980.349 237.974 981.099C238.375 981.854 238.74 982.62 239.068 983.406C239.391 984.193 239.678 984.995 239.928 985.807C240.172 986.625 240.381 987.448 240.547 988.281C240.714 989.12 240.839 989.958 240.922 990.807C241.006 991.651 241.047 992.5 241.047 993.354Z" fill="#202D35"/>
<mask id="mask7_377_3864" style="mask-type:luminance" maskUnits="userSpaceOnUse" x="93" y="872" width="297" height="88">
<path d="M93.5317 872H389.865V960H93.5317V872Z" fill="white"/>
</mask>
<g mask="url(#mask7_377_3864)">
<path d="M388.563 872.058V958.698H264.823C245.698 931.235 207.896 924.448 180.386 943.542C174.464 947.657 169.323 952.787 165.209 958.698H119.563V906.714C119.537 897.157 111.782 889.417 102.209 889.386H93.5317V872.058H388.563Z" fill="#C7C1B5"/>
</g>
<path d="M379.886 872.058V941.37H273.157C244.485 909.313 195.214 906.526 163.105 935.151C160.912 937.104 158.834 939.183 156.875 941.37H119.563V958.698H165.209C184.334 931.235 222.136 924.448 249.646 943.542C255.568 947.657 260.709 952.787 264.823 958.698H388.563V872.058H379.886Z" fill="#A6A197"/>
<path d="M492.693 733.438H388.563V976.026C388.563 985.594 396.334 993.354 405.917 993.354H431.948C431.948 959.859 459.146 932.708 492.693 932.708C526.24 932.708 553.433 959.859 553.433 993.354H614.178V854.734C614.178 787.745 559.787 733.438 492.693 733.438Z" fill="#E6E4DF"/>
<path d="M492.693 733.438H388.563V976.026C388.594 985.583 396.344 993.328 405.917 993.354H431.948C431.948 959.859 459.146 932.708 492.693 932.708C526.24 932.708 553.433 959.859 553.433 993.354H614.178V854.734C614.178 787.745 559.787 733.438 492.693 733.438ZM596.823 976.026H568.881C559.271 934.016 517.375 907.734 475.297 917.328C446.037 924 423.188 946.813 416.506 976.026H405.917V750.766H492.693C550.183 750.813 596.771 797.333 596.823 854.734V976.026Z" fill="#C7C1B5"/>
<path d="M461.454 941.37C455.308 944.99 449.896 949.719 445.485 955.318C432.386 947.953 423.271 929.156 423.271 906.714V802.75H440.631V906.714C440.631 926.557 449.823 941.37 457.985 941.37H461.454Z" fill="#C7C1B5"/>
<path d="M614.177 854.734V872.057H536.079C526.631 872.063 518.912 864.51 518.724 855.078C519.042 845.641 511.641 837.729 502.183 837.411C502.141 837.406 502.105 837.406 502.063 837.406H457.985C438.813 837.406 423.271 821.891 423.271 802.75V785.422C423.302 775.865 431.052 768.12 440.631 768.094H577.646C601.047 790.859 614.224 822.109 614.177 854.734Z" fill="#5980EE"/>
<path d="M577.646 768.094H440.631C431.052 768.12 423.302 775.865 423.271 785.422V802.75C423.271 821.891 438.813 837.406 457.985 837.406H502.063C511.521 837.656 518.98 845.516 518.73 854.958C518.73 855 518.724 855.036 518.724 855.078C518.912 864.51 526.631 872.063 536.079 872.057H614.177V854.734C614.224 822.109 601.047 790.859 577.646 768.094ZM536.079 854.734C536.224 835.802 521.021 820.318 502.063 820.078H457.985C448.412 820.047 440.657 812.307 440.631 802.75V785.422H570.271C587.448 804.422 596.917 829.135 596.823 854.734H536.079Z" fill="#5980EE"/>
<path d="M588.146 837.406C592.938 837.406 596.823 841.281 596.823 846.068C596.823 850.854 592.938 854.734 588.146 854.734H596.823C611.198 854.734 622.855 839.214 622.855 820.078C622.855 800.938 611.198 785.422 596.823 785.422H588.146V837.406Z" fill="#202D35"/>
<mask id="mask8_377_3864" style="mask-type:luminance" maskUnits="userSpaceOnUse" x="587" y="966" width="45" height="37">
<path d="M587.198 966.667H631.532V1002.67H587.198V966.667Z" fill="white"/>
</mask>
<g mask="url(#mask8_377_3864)">
<path d="M631.532 984.688C631.501 994.25 623.751 1001.99 614.178 1002.02H588.146V967.359H614.178C623.751 967.391 631.501 975.13 631.532 984.688Z" fill="#5980EE"/>
</g>
<mask id="mask9_377_3864" style="mask-type:luminance" maskUnits="userSpaceOnUse" x="587" y="984" width="45" height="19">
<path d="M587.198 984H631.532V1002.67H587.198V984Z" fill="white"/>
</mask>
<g mask="url(#mask9_377_3864)">
<path d="M631.532 984.688C631.501 994.25 623.751 1001.99 614.178 1002.02H588.146V984.688H631.532Z" fill="#4361B1"/>
</g>
<mask id="mask10_377_3864" style="mask-type:luminance" maskUnits="userSpaceOnUse" x="440" y="941" width="106" height="105">
<path d="M440.532 941.333H545.865V1045.41H440.532V941.333Z" fill="white"/>
</mask>
<g mask="url(#mask10_377_3864)">
<path d="M544.756 993.354C544.756 995.057 544.672 996.755 544.506 998.447C544.339 1000.14 544.089 1001.82 543.756 1003.49C543.422 1005.17 543.011 1006.81 542.516 1008.44C542.021 1010.07 541.448 1011.67 540.792 1013.24C540.141 1014.82 539.412 1016.35 538.61 1017.86C537.808 1019.36 536.933 1020.82 535.985 1022.23C535.037 1023.65 534.021 1025.01 532.938 1026.33C531.86 1027.65 530.714 1028.91 529.506 1030.11C528.302 1031.31 527.042 1032.46 525.724 1033.54C524.401 1034.61 523.037 1035.63 521.62 1036.57C520.198 1037.52 518.74 1038.4 517.235 1039.2C515.73 1040 514.193 1040.73 512.615 1041.38C511.042 1042.03 509.438 1042.6 507.808 1043.1C506.172 1043.59 504.521 1044 502.849 1044.34C501.177 1044.67 499.495 1044.92 497.797 1045.09C496.099 1045.25 494.396 1045.34 492.693 1045.34C490.99 1045.34 489.287 1045.25 487.589 1045.09C485.891 1044.92 484.209 1044.67 482.537 1044.34C480.865 1044 479.209 1043.59 477.579 1043.1C475.948 1042.6 474.344 1042.03 472.766 1041.38C471.193 1040.73 469.651 1040 468.151 1039.2C466.646 1038.4 465.183 1037.52 463.766 1036.57C462.349 1035.63 460.98 1034.61 459.662 1033.54C458.344 1032.46 457.084 1031.31 455.875 1030.11C454.672 1028.91 453.526 1027.65 452.448 1026.33C451.365 1025.01 450.349 1023.65 449.401 1022.23C448.454 1020.82 447.579 1019.36 446.776 1017.86C445.974 1016.35 445.245 1014.82 444.589 1013.24C443.938 1011.67 443.365 1010.07 442.87 1008.44C442.375 1006.81 441.964 1005.17 441.631 1003.49C441.297 1001.82 441.047 1000.14 440.881 998.447C440.714 996.755 440.631 995.057 440.631 993.354C440.631 991.65 440.714 989.952 440.881 988.26C441.047 986.562 441.297 984.88 441.631 983.213C441.964 981.541 442.375 979.89 442.87 978.265C443.365 976.635 443.938 975.031 444.589 973.458C445.245 971.885 445.974 970.348 446.776 968.848C447.579 967.348 448.454 965.89 449.401 964.473C450.349 963.057 451.365 961.692 452.448 960.374C453.526 959.057 454.672 957.801 455.875 956.593C457.084 955.39 458.344 954.249 459.662 953.171C460.98 952.088 462.349 951.077 463.766 950.13C465.183 949.187 466.646 948.312 468.151 947.51C469.651 946.708 471.193 945.979 472.766 945.327C474.344 944.676 475.948 944.104 477.579 943.609C479.209 943.114 480.865 942.702 482.537 942.369C484.209 942.036 485.891 941.786 487.589 941.619C489.287 941.452 490.99 941.369 492.693 941.369C494.396 941.369 496.099 941.452 497.797 941.619C499.495 941.786 501.177 942.036 502.849 942.369C504.521 942.702 506.172 943.114 507.808 943.609C509.438 944.104 511.042 944.676 512.615 945.327C514.193 945.979 515.73 946.708 517.235 947.51C518.74 948.312 520.198 949.187 521.62 950.13C523.037 951.077 524.401 952.088 525.724 953.171C527.042 954.249 528.302 955.39 529.506 956.593C530.714 957.801 531.86 959.057 532.938 960.374C534.021 961.692 535.037 963.057 535.985 964.473C536.933 965.89 537.808 967.348 538.61 968.848C539.412 970.348 540.141 971.885 540.792 973.458C541.448 975.031 542.021 976.635 542.516 978.265C543.011 979.89 543.422 981.541 543.756 983.213C544.089 984.88 544.339 986.562 544.506 988.26C544.672 989.952 544.756 991.65 544.756 993.354Z" fill="#283640"/>
</g>
<path d="M518.724 993.354C518.724 994.203 518.683 995.052 518.599 995.901C518.516 996.75 518.391 997.589 518.224 998.422C518.058 999.26 517.849 1000.08 517.605 1000.9C517.355 1001.71 517.068 1002.52 516.745 1003.3C516.417 1004.09 516.052 1004.85 515.651 1005.6C515.25 1006.35 514.813 1007.08 514.339 1007.79C513.865 1008.5 513.355 1009.18 512.818 1009.84C512.276 1010.5 511.704 1011.13 511.099 1011.73C510.495 1012.33 509.865 1012.91 509.209 1013.44C508.547 1013.98 507.865 1014.49 507.157 1014.96C506.448 1015.44 505.714 1015.88 504.964 1016.28C504.214 1016.68 503.443 1017.04 502.657 1017.36C501.865 1017.69 501.063 1017.98 500.25 1018.22C499.433 1018.47 498.61 1018.68 497.771 1018.84C496.933 1019.01 496.094 1019.14 495.245 1019.22C494.396 1019.3 493.547 1019.34 492.693 1019.34C491.839 1019.34 490.99 1019.3 490.141 1019.22C489.292 1019.14 488.448 1019.01 487.615 1018.84C486.776 1018.68 485.954 1018.47 485.136 1018.22C484.318 1017.98 483.516 1017.69 482.73 1017.36C481.943 1017.04 481.172 1016.68 480.422 1016.28C479.667 1015.88 478.938 1015.44 478.23 1014.96C477.521 1014.49 476.839 1013.98 476.177 1013.44C475.521 1012.91 474.886 1012.33 474.287 1011.73C473.683 1011.13 473.11 1010.5 472.568 1009.84C472.026 1009.18 471.521 1008.5 471.047 1007.79C470.573 1007.08 470.136 1006.35 469.735 1005.6C469.334 1004.85 468.969 1004.09 468.641 1003.3C468.318 1002.52 468.026 1001.71 467.782 1000.9C467.532 1000.08 467.329 999.26 467.162 998.422C466.995 997.589 466.87 996.75 466.787 995.901C466.704 995.052 466.662 994.203 466.662 993.354C466.662 992.5 466.704 991.651 466.787 990.807C466.87 989.958 466.995 989.12 467.162 988.281C467.329 987.448 467.532 986.625 467.782 985.807C468.026 984.995 468.318 984.193 468.641 983.406C468.969 982.62 469.334 981.854 469.735 981.099C470.136 980.349 470.573 979.62 471.047 978.911C471.521 978.203 472.026 977.521 472.568 976.865C473.11 976.208 473.683 975.578 474.287 974.974C474.886 974.375 475.521 973.802 476.177 973.26C476.839 972.724 477.521 972.214 478.23 971.745C478.938 971.271 479.667 970.833 480.422 970.432C481.172 970.031 481.943 969.667 482.73 969.339C483.516 969.016 484.318 968.729 485.136 968.479C485.954 968.234 486.776 968.026 487.615 967.859C488.448 967.693 489.292 967.573 490.141 967.49C490.99 967.401 491.839 967.359 492.693 967.359C493.547 967.359 494.396 967.401 495.245 967.49C496.094 967.573 496.933 967.693 497.771 967.859C498.61 968.026 499.433 968.234 500.25 968.479C501.063 968.729 501.865 969.016 502.657 969.339C503.443 969.667 504.214 970.031 504.964 970.432C505.714 970.833 506.448 971.271 507.157 971.745C507.865 972.214 508.547 972.724 509.209 973.26C509.865 973.802 510.495 974.375 511.099 974.974C511.704 975.578 512.276 976.208 512.818 976.865C513.355 977.521 513.865 978.203 514.339 978.911C514.813 979.62 515.25 980.349 515.651 981.099C516.052 981.854 516.417 982.62 516.745 983.406C517.068 984.193 517.355 984.995 517.605 985.807C517.849 986.625 518.058 987.448 518.224 988.281C518.391 989.12 518.516 989.958 518.599 990.807C518.683 991.651 518.724 992.5 518.724 993.354Z" fill="#202D35"/>
<path d="M475.339 880.724H466.662C461.865 880.724 457.985 876.843 457.985 872.057C457.985 867.276 461.865 863.396 466.662 863.396H475.339C480.131 863.396 484.016 867.276 484.016 872.057C484.016 876.843 480.131 880.724 475.339 880.724Z" fill="#283640"/>
<path d="M510.047 993.354C510.047 994.49 509.938 995.62 509.714 996.735C509.49 997.849 509.162 998.933 508.725 999.985C508.292 1001.04 507.756 1002.04 507.126 1002.98C506.49 1003.93 505.771 1004.8 504.964 1005.6C504.157 1006.41 503.282 1007.13 502.334 1007.76C501.386 1008.39 500.386 1008.93 499.334 1009.36C498.282 1009.8 497.198 1010.13 496.079 1010.35C494.959 1010.57 493.834 1010.68 492.693 1010.68C491.553 1010.68 490.422 1010.57 489.308 1010.35C488.188 1010.13 487.105 1009.8 486.053 1009.36C485.001 1008.93 484.001 1008.39 483.053 1007.76C482.105 1007.13 481.225 1006.41 480.422 1005.6C479.615 1004.8 478.896 1003.93 478.261 1002.98C477.631 1002.04 477.094 1001.04 476.657 999.985C476.225 998.933 475.896 997.849 475.672 996.735C475.448 995.62 475.339 994.49 475.339 993.354C475.339 992.214 475.448 991.089 475.672 989.974C475.896 988.86 476.225 987.776 476.657 986.724C477.094 985.672 477.631 984.672 478.261 983.729C478.896 982.782 479.615 981.907 480.422 981.099C481.225 980.297 482.105 979.578 483.053 978.948C484.001 978.313 485.001 977.782 486.053 977.344C487.105 976.912 488.188 976.578 489.308 976.36C490.422 976.136 491.553 976.026 492.693 976.026C493.834 976.026 494.959 976.136 496.079 976.36C497.198 976.578 498.282 976.912 499.334 977.344C500.386 977.782 501.386 978.313 502.334 978.948C503.282 979.578 504.157 980.297 504.964 981.099C505.771 981.907 506.49 982.782 507.12 983.729C507.756 984.672 508.292 985.672 508.725 986.724C509.162 987.776 509.49 988.86 509.714 989.974C509.938 991.089 510.047 992.214 510.047 993.354Z" fill="#222325"/>
<path d="M232.37 993.354C232.37 994.49 232.261 995.62 232.037 996.735C231.813 997.849 231.485 998.933 231.047 999.985C230.615 1001.04 230.079 1002.04 229.443 1002.98C228.813 1003.93 228.094 1004.8 227.287 1005.6C226.48 1006.41 225.605 1007.13 224.657 1007.76C223.709 1008.39 222.709 1008.93 221.657 1009.36C220.605 1009.8 219.521 1010.13 218.401 1010.35C217.282 1010.57 216.157 1010.68 215.016 1010.68C213.875 1010.68 212.745 1010.57 211.631 1010.35C210.511 1010.13 209.427 1009.8 208.375 1009.36C207.323 1008.93 206.323 1008.39 205.375 1007.76C204.427 1007.13 203.547 1006.41 202.745 1005.6C201.938 1004.8 201.219 1003.93 200.584 1002.98C199.954 1002.04 199.417 1001.04 198.98 999.985C198.547 998.933 198.214 997.849 197.995 996.735C197.771 995.62 197.662 994.49 197.662 993.354C197.662 992.214 197.771 991.089 197.995 989.974C198.214 988.86 198.547 987.776 198.98 986.724C199.417 985.672 199.954 984.672 200.584 983.729C201.219 982.782 201.938 981.907 202.745 981.099C203.547 980.297 204.427 979.578 205.375 978.948C206.323 978.313 207.323 977.782 208.375 977.344C209.427 976.912 210.511 976.578 211.631 976.36C212.745 976.136 213.875 976.026 215.016 976.026C216.157 976.026 217.282 976.136 218.401 976.36C219.521 976.578 220.605 976.912 221.657 977.344C222.709 977.782 223.709 978.313 224.657 978.948C225.605 979.578 226.48 980.297 227.287 981.099C228.094 981.907 228.813 982.782 229.443 983.729C230.079 984.672 230.615 985.672 231.047 986.724C231.485 987.776 231.813 988.86 232.037 989.974C232.261 991.089 232.37 992.214 232.37 993.354Z" fill="#222325"/>
<path d="M162.954 742.104H353.855V872.058H162.954V742.104Z" fill="#FDC42E"/>
<path d="M162.954 742.104H353.855V759.433H162.954V742.104Z" fill="#EF8825"/>
<path d="M232.37 742.104H284.433V872.058H232.37V742.104Z" fill="#EF8825"/>
<path d="M241.047 742.104H275.756V872.058H241.047V742.104Z" fill="#EE194F"/>
<path d="M241.047 742.104H258.402V872.058H241.047V742.104Z" fill="#B2123B"/>
<path d="M241.047 742.104H275.756V759.433H241.047V742.104Z" fill="#B2123B"/>
<path d="M145.594 698.781H371.209V742.104H145.594V698.781Z" fill="#FDC42E"/>
<path d="M223.693 698.781H293.11V742.104H223.693V698.781Z" fill="#EF8825"/>
<path d="M232.37 698.781H284.433V742.104H232.37V698.781Z" fill="#EE194F"/>
<path d="M232.37 698.781H258.402V742.104H232.37V698.781Z" fill="#B2123B"/>
<mask id="mask11_377_3864" style="mask-type:luminance" maskUnits="userSpaceOnUse" x="93" y="577" width="157" height="114">
<path d="M93.5317 577.411H249.865V690.666H93.5317V577.411Z" fill="white"/>
</mask>
<g mask="url(#mask11_377_3864)">
<path d="M249.724 690.119C206.589 690.119 136.917 655.463 136.917 577.489C125.829 589.526 109.875 595.896 93.5317 594.817C93.5317 647.453 128.24 690.119 215.016 690.119H249.724Z" fill="#B2123B"/>
</g>
<path d="M136.917 664.13C145.594 681.458 196.1 690.119 258.402 690.119C220.063 690.119 188.985 664.13 180.308 646.802V629.474H154.271L136.917 664.13Z" fill="#202D35"/>
<path d="M258.402 690.119C258.402 637.484 223.443 594.817 180.308 594.817C156.35 594.817 136.917 625.849 136.917 664.13C152.115 653.218 170.271 647.172 188.985 646.802C227.318 646.802 258.402 666.198 258.402 690.119Z" fill="#EE194F"/>
<mask id="mask12_377_3864" style="mask-type:luminance" maskUnits="userSpaceOnUse" x="265" y="577" width="160" height="114">
<path d="M265.865 577.411H424.532V690.666H265.865V577.411Z" fill="white"/>
</mask>
<g mask="url(#mask12_377_3864)">
<path d="M267.079 690.119C310.214 690.119 379.886 655.463 379.886 577.489C390.974 589.526 406.928 595.896 423.271 594.817C423.271 647.453 388.563 690.119 301.792 690.119H267.079Z" fill="#B2123B"/>
</g>
<path d="M379.886 664.13C371.209 681.458 320.704 690.119 258.402 690.119C296.74 690.119 327.823 664.13 336.501 646.802V629.474H362.532L379.886 664.13Z" fill="#202D35"/>
<path d="M258.402 690.119C258.402 637.484 293.365 594.817 336.501 594.817C360.459 594.817 379.886 625.849 379.886 664.13C364.693 653.218 346.537 647.172 327.823 646.802C289.485 646.802 258.402 666.198 258.402 690.119Z" fill="#EE194F"/>
<mask id="mask13_377_3864" style="mask-type:luminance" maskUnits="userSpaceOnUse" x="76" y="389" width="940" height="510">
<path d="M76.5317 389.333H1015.2V898.666H76.5317V389.333Z" fill="white"/>
</mask>
<g mask="url(#mask13_377_3864)">
<mask id="mask14_377_3864" style="mask-type:luminance" maskUnits="userSpaceOnUse" x="75" y="245" width="948" height="801">
<path d="M231.282 245.604L1022.82 836.88L866.626 1045.98L75.0839 454.702L231.282 245.604Z" fill="white"/>
</mask>
<g mask="url(#mask14_377_3864)">
<mask id="mask15_377_3864" style="mask-type:luminance" maskUnits="userSpaceOnUse" x="75" y="245" width="948" height="801">
<path d="M231.282 245.604L1022.82 836.88L866.626 1045.98L75.0839 454.702L231.282 245.604Z" fill="white"/>
</mask>
<g mask="url(#mask15_377_3864)">
<mask id="mask16_377_3864" style="mask-type:luminance" maskUnits="userSpaceOnUse" x="75" y="245" width="948" height="801">
<path d="M231.282 245.604L1022.82 836.88L866.626 1045.98L75.0839 454.702L231.282 245.604Z" fill="white"/>
</mask>
<g mask="url(#mask16_377_3864)">
<path d="M76.8599 455.905C82.6619 444.556 90.5474 433.999 100.032 425.4C109.511 416.796 120.527 409.723 132.214 404.301C155.589 393.457 181.855 388.973 207.511 390.926C233.412 393.062 258.224 401.265 281.256 412.353C304.355 423.869 325.678 438.265 345.907 454.14C386.172 486.129 421.912 523.155 455.448 561.598C472.25 581.03 488.438 600.775 504.626 620.52C520.813 640.259 536.818 660.249 552.818 680.239C584.829 720.213 617.021 759.947 654.964 794.025C674.027 810.942 694.37 826.14 716.37 839.129C738.183 852.364 760.912 864.369 784.376 873.864C807.839 883.358 832.521 890.702 857.995 892.9C870.61 893.905 883.224 893.384 895.896 891.754C902.323 890.822 908.751 889.884 914.933 888.765C921.12 887.645 927.24 886.098 933.605 884.733C945.849 881.634 958.277 878.296 970.334 873.916C976.391 871.937 982.146 869.348 987.834 866.332C993.527 863.317 998.724 859.931 1003.38 855.754C1008.02 851.577 1011.88 846.421 1012.36 840.661C1012.6 837.78 1011.56 835.088 1010.08 832.457C1008.61 829.827 1006.53 827.504 1004.14 826.103C999.297 822.869 992.501 822.765 986.99 825.536C981.485 828.306 976.896 832.916 974.146 838.129L972.433 836.848C975.063 833.838 975.792 829.791 975.662 825.874C975.11 822.015 973.448 818.098 971.24 814.921C968.24 812.296 964.808 809.728 961.313 808.27C957.579 806.624 953.417 806.577 949.438 807.812C945.641 808.801 942.094 811.504 940.198 815.067C938.303 818.624 938.063 823.036 938.438 827.134C938.808 831.239 939.61 835.28 940.839 839.259C942.251 842.994 944.521 846.603 947.157 849.718C944.339 846.848 941.641 843.301 940.23 839.567C938.568 835.65 937.771 831.608 937.396 827.509C937.027 823.405 937.266 818.994 939.094 815.004C940.928 811.02 944.662 808.067 948.641 806.832C952.615 805.598 957.209 805.582 961.376 807.166C965.542 808.749 968.974 811.312 971.672 814.858C974.37 818.405 976.027 822.317 976.646 826.603C977.261 830.89 975.98 835.671 973.412 839.108L971.698 837.827C974.568 831.942 979.521 826.843 985.459 824.009C991.579 820.931 999.172 820.478 1005.18 824.202C1008.05 825.968 1010.63 828.655 1012.35 831.473C1014.06 834.286 1015.48 838.02 1015.12 841.572C1014.75 845.124 1013.47 848.374 1011.7 851.259C1009.92 854.145 1007.66 856.661 1005.34 858.749C995.428 867.416 983.62 873.509 971.501 877.463C959.198 881.661 947.016 885.187 934.589 888.53C928.469 890.077 922.105 891.442 915.735 892.806C909.308 893.744 903.126 894.858 896.698 895.796C883.839 897.671 870.985 898.009 857.938 897.067C832.157 894.254 807.23 886.728 783.521 877.051C759.813 867.374 737.084 855.369 715.027 841.952C693.027 828.963 672.193 813.395 653.131 796.478C614.943 762.218 582.506 722.301 550.495 682.327C534.49 662.338 518.485 642.348 502.297 622.608C486.11 602.864 469.922 583.119 453.125 563.687C419.584 525.244 384.089 488.4 344.068 456.593C324.089 440.905 302.766 426.504 279.912 415.171C257.063 403.843 232.563 396.249 207.271 393.806C181.98 391.364 156.084 395.353 132.829 405.525C121.323 410.702 110.245 417.348 100.521 425.765C91.0422 434.364 82.6619 444.556 76.8599 455.905Z" fill="black"/>
</g>
</g>
</g>
</g>
</svg>
