<svg width="1466" height="1465" viewBox="0 0 1466 1465" fill="none" xmlns="http://www.w3.org/2000/svg">
<path d="M16.8285 1200.32C59.8025 1305.11 160.323 1354.64 224.568 1386.29C477.813 1511.08 862.631 1496.24 1139.77 1268.27C1204.63 1214.93 1524.28 935.458 1450.09 557.276C1384.52 222.953 1053.82 29.1456 775.256 3.49455C544.474 -17.7554 214.75 69.6404 108.125 273.661C41.0733 401.958 149.813 439.807 94.8806 730.469C47.3338 982.031 -35.7288 1072.12 16.8285 1200.32Z" fill="#FFDE59"/>
<path d="M533.318 1232.5C489.438 1244.53 444.12 1218.67 432.105 1174.74C420.089 1130.82 445.922 1085.47 489.808 1073.44C533.693 1061.42 579.006 1087.27 591.021 1131.19C603.037 1175.11 577.204 1220.47 533.318 1232.5ZM675.464 1124.66L667.016 1093.76L632.094 1095.35C628.86 1088.55 625.115 1082.09 620.875 1076.07L639.365 1046.43L616.61 1023.9L587.157 1042.76C581.026 1038.54 574.547 1034.85 567.808 1031.71L569.016 996.74L538.063 988.625L521.995 1019.65C514.651 1019.07 507.193 1019.13 499.698 1019.81L483.276 988.927L452.407 997.385L453.995 1032.33C447.198 1035.57 440.756 1039.32 434.73 1043.56L405.115 1025.06L382.61 1047.83L401.448 1077.31C397.24 1083.45 393.552 1089.93 390.417 1096.68L355.48 1095.46L347.365 1126.45L378.36 1142.53C377.782 1149.89 377.839 1157.34 378.516 1164.85L347.662 1181.29L356.115 1212.17L391.032 1210.59C394.266 1217.4 398.011 1223.84 402.25 1229.88L383.766 1259.52L406.516 1282.04L435.969 1263.18C442.105 1267.4 448.573 1271.08 455.318 1274.22L454.115 1309.19L485.068 1317.32L501.131 1286.3C508.474 1286.87 515.933 1286.81 523.427 1286.14L539.849 1317.02L570.714 1308.56L569.131 1273.61C575.927 1270.37 582.37 1266.61 588.396 1262.38L618.016 1280.88L640.516 1258.1L621.683 1228.64C625.886 1222.49 629.573 1216.02 632.714 1209.27L667.646 1210.48L675.761 1179.49L644.771 1163.41C645.344 1156.06 645.287 1148.6 644.605 1141.09L675.464 1124.66Z" fill="#FFCB46"/>
<path d="M520.73 60.0004C520.422 60.0004 520.12 59.9483 519.818 59.8442C518.443 59.3337 517.735 57.8181 518.235 56.4379L522.922 43.5369C523.422 42.1671 524.948 41.4431 526.323 41.9483C527.704 42.4587 528.412 43.9744 527.912 45.3546L523.219 58.2556C522.829 59.3337 521.808 60.0004 520.73 60.0004Z" fill="#764A09"/>
<path d="M509.797 90.0368C509.495 90.0368 509.188 89.9847 508.891 89.8701C507.511 89.3701 506.803 87.8545 507.303 86.4795L511.995 73.5837C512.495 72.1982 514.016 71.4847 515.396 71.9951C516.771 72.4951 517.485 74.0212 516.98 75.3962L512.287 88.292C511.896 89.3701 510.881 90.0368 509.797 90.0368Z" fill="#764A09"/>
<path d="M509.032 65.4533C508.735 65.4533 508.428 65.4012 508.126 65.2866L495.235 60.6043C493.86 60.0991 493.152 58.5783 493.652 57.198C494.152 55.8178 495.667 55.1095 497.053 55.6095L509.943 60.3074C511.318 60.8074 512.027 62.3335 511.527 63.7033C511.136 64.7814 510.12 65.4533 509.032 65.4533Z" fill="#764A09"/>
<path d="M539.074 76.3797C538.771 76.3797 538.469 76.3277 538.172 76.2131L525.277 71.5204C523.896 71.0204 523.188 69.4943 523.688 68.1245C524.188 66.7443 525.714 66.0256 527.089 66.5412L539.98 71.2235C541.355 71.7235 542.068 73.2495 541.563 74.6297C541.178 75.7027 540.157 76.3797 539.074 76.3797Z" fill="#764A09"/>
<path d="M170.652 212.323C180.131 208.068 191.198 212.453 195.37 222.13C199.542 231.802 195.24 243.099 185.761 247.359C176.282 251.615 165.214 247.224 161.042 237.557C156.87 227.88 161.172 216.578 170.652 212.323Z" fill="#FFCB46"/>
<path d="M406.376 75.3643C404.178 75.3643 401.98 75.8383 399.912 76.7601C391.761 80.4164 388.058 90.182 391.652 98.5101C393.407 102.583 396.605 105.682 400.667 107.265C404.631 108.807 408.964 108.698 412.85 106.953C420.995 103.286 424.704 93.531 421.11 85.1924C419.355 81.1299 416.157 78.0206 412.094 76.4476C410.24 75.7237 408.308 75.3643 406.376 75.3643ZM406.386 113.656C403.808 113.656 401.225 113.177 398.74 112.208C393.35 110.114 389.1 105.989 386.782 100.614C382.042 89.6299 386.959 76.7601 397.74 71.9164C402.933 69.5883 408.714 69.4372 414.021 71.4997C419.412 73.5987 423.662 77.7133 425.98 83.0935C430.719 94.0726 425.797 106.953 415.021 111.786C412.256 113.031 409.324 113.656 406.386 113.656Z" fill="#764A09"/>
<path d="M292.573 171.817C291.917 171.817 291.256 171.578 290.74 171.083C289.683 170.073 289.646 168.39 290.662 167.328L297.167 160.531C298.183 159.484 299.86 159.442 300.922 160.453C301.974 161.474 302.011 163.151 301.001 164.213L294.49 171.005C293.969 171.547 293.271 171.817 292.573 171.817Z" fill="#764A09"/>
<path d="M269.797 195.609C269.131 195.609 268.474 195.364 267.959 194.869C266.902 193.864 266.865 192.182 267.881 191.125L274.386 184.328C275.402 183.27 277.079 183.234 278.136 184.25C279.198 185.26 279.23 186.942 278.219 187.994L271.714 194.796C271.188 195.333 270.49 195.609 269.797 195.609Z" fill="#764A09"/>
<path d="M276.177 172.193C275.506 172.193 274.834 171.943 274.318 171.427L267.714 164.927C266.667 163.906 266.657 162.224 267.683 161.182C268.709 160.13 270.391 160.12 271.433 161.14L278.042 167.646C279.084 168.682 279.099 170.359 278.068 171.401C277.547 171.932 276.865 172.193 276.177 172.193Z" fill="#764A09"/>
<path d="M299.303 194.958C298.631 194.958 297.954 194.703 297.438 194.198L290.834 187.693C289.787 186.667 289.777 184.984 290.803 183.938C291.829 182.891 293.511 182.88 294.558 183.906L301.162 190.412C302.204 191.438 302.219 193.12 301.193 194.162C300.672 194.693 299.99 194.958 299.303 194.958Z" fill="#764A09"/>
<path d="M1248.91 1366.57L1215.79 1368.98L601.474 1366.57C573.579 1366.57 553.813 1344.05 557.339 1316.29L716.751 58.8799C720.277 31.1143 745.745 8.60384 773.646 8.60384L1388.59 1.42676C1459.17 1.42676 1468.75 31.1143 1465.22 58.8799L1305.82 1316.29C1302.29 1344.05 1276.81 1366.57 1248.91 1366.57Z" fill="#BD9472"/>
<path d="M1209.96 1368.97H562.521C534.625 1368.97 514.86 1346.36 518.381 1318.45L677.797 54.7972C681.318 26.8962 706.792 4.27637 734.688 4.27637H1382.14C1410.03 4.27637 1429.8 26.8962 1426.28 54.7972L1266.85 1318.45C1263.34 1346.36 1237.87 1368.97 1209.96 1368.97Z" fill="white"/>
<path d="M555.276 1320.19L707.495 113.619C708.302 107.177 714.188 101.958 720.625 101.958H1371.55C1377.99 101.958 1382.56 107.177 1381.75 113.619L1229.52 1320.19C1228.71 1326.64 1222.83 1331.86 1216.39 1331.86H565.464C559.021 1331.86 554.459 1326.64 555.276 1320.19Z" fill="#FFCB46"/>
<path d="M1050.3 68.5469C1039.85 68.5469 1032.44 60.0781 1033.77 49.6198C1035.08 39.1719 1044.63 30.6875 1055.08 30.6875C1065.53 30.6875 1072.93 39.1719 1071.62 49.6198C1070.3 60.0781 1060.76 68.5469 1050.3 68.5469Z" fill="#FFDE59"/>
<path d="M1326.84 845.698C1326.72 845.698 1326.62 845.687 1326.5 845.672C1325.04 845.489 1324.02 844.161 1324.2 842.708L1423.64 54.4788C1425.25 41.6663 1421.79 29.6663 1413.88 20.6924C1406.05 11.8226 1394.77 6.93717 1382.14 6.93717H734.688C708.126 6.93717 683.782 28.5622 680.428 55.1403L664.917 178.114C664.73 179.567 663.396 180.588 661.954 180.416C660.495 180.234 659.464 178.911 659.646 177.453L675.162 54.4788C678.844 25.333 705.547 1.62988 734.688 1.62988H1382.14C1396.32 1.62988 1409.01 7.15072 1417.85 17.1872C1426.78 27.3174 1430.72 40.7965 1428.9 55.1403L1329.46 843.375C1329.29 844.708 1328.15 845.698 1326.84 845.698Z" fill="#764A09"/>
<path d="M562.537 1371.64C548.334 1371.64 535.646 1366.11 526.803 1356.08C517.865 1345.94 513.938 1332.46 515.745 1318.12L572.693 866.714C572.875 865.256 574.198 864.24 575.662 864.407C577.11 864.594 578.146 865.922 577.959 867.381L521.011 1318.78C519.391 1331.59 522.865 1343.59 530.782 1352.56C538.599 1361.44 549.875 1366.33 562.521 1366.33L869.615 1364.51C869.625 1364.51 869.631 1364.51 869.631 1364.51C871.089 1364.51 872.282 1365.69 872.292 1367.15C872.297 1368.61 871.11 1369.8 869.646 1369.81L562.537 1371.64Z" fill="#764A09"/>
<path d="M655.901 1083.69C655.105 1083.69 654.318 1083.34 653.797 1082.66C652.901 1081.49 653.115 1079.83 654.276 1078.93L790.48 974.099C791.641 973.213 793.308 973.422 794.204 974.588C795.089 975.75 794.875 977.416 793.714 978.312L657.521 1083.14C657.032 1083.51 656.464 1083.69 655.901 1083.69Z" fill="#FFDE59"/>
<path d="M813.886 962.083C813.094 962.083 812.308 961.729 811.787 961.052C810.891 959.89 811.105 958.224 812.271 957.328L869.985 912.906C871.136 912.015 872.808 912.234 873.698 913.396C874.594 914.557 874.381 916.224 873.219 917.109L815.506 961.541C815.021 961.906 814.454 962.083 813.886 962.083Z" fill="#FFDE59"/>
<path d="M627.594 1175.67C626.803 1175.67 626.021 1175.32 625.5 1174.64C624.605 1173.48 624.818 1171.82 625.98 1170.92L692.235 1119.92C693.396 1119.03 695.063 1119.24 695.959 1120.41C696.855 1121.57 696.636 1123.23 695.48 1124.13L629.214 1175.12C628.735 1175.49 628.167 1175.67 627.594 1175.67Z" fill="#FFDE59"/>
<path d="M725.006 1100.7C724.209 1100.7 723.422 1100.35 722.901 1099.67C722.006 1098.51 722.224 1096.84 723.381 1095.95L841.678 1004.89C842.839 1004.01 844.511 1004.22 845.401 1005.38C846.297 1006.54 846.084 1008.21 844.922 1009.1L726.625 1100.15C726.136 1100.52 725.568 1100.7 725.006 1100.7Z" fill="#FFDE59"/>
<path d="M763.787 1168.59C762.99 1168.59 762.204 1168.25 761.678 1167.56C760.787 1166.4 761.006 1164.73 762.167 1163.84L860.589 1088.08C861.745 1087.19 863.422 1087.4 864.308 1088.57C865.204 1089.73 864.99 1091.4 863.829 1092.29L765.402 1168.05C764.917 1168.42 764.355 1168.59 763.787 1168.59Z" fill="#FFDE59"/>
<path d="M1240.87 215.047C1278.08 215.146 1305.38 245.031 1301.7 281.667L1252.87 768.354C1249.19 804.995 1215.92 834.719 1178.7 834.62L363.1 832.469C325.881 832.375 298.594 802.484 302.266 765.849L351.105 279.161C354.782 242.521 388.047 212.797 425.266 212.896L1240.87 215.047Z" fill="white"/>
<path d="M720.334 836.068L375.589 835.162C374.12 835.151 372.938 833.969 372.943 832.506C372.943 831.037 374.131 829.855 375.594 829.855C375.594 829.855 375.594 829.855 375.599 829.855L720.334 830.761C721.803 830.766 722.99 831.959 722.99 833.422C722.98 834.881 721.792 836.068 720.334 836.068ZM1178.88 837.276C1178.82 837.276 1178.76 837.276 1178.69 837.276L799.917 836.276C798.464 836.276 797.276 835.084 797.287 833.62C797.287 832.151 798.464 830.974 799.933 830.974H799.943L1178.7 831.969C1178.77 831.969 1178.83 831.969 1178.88 831.969C1214.7 831.969 1246.68 803.355 1250.22 768.094L1299.06 281.407C1300.75 264.578 1295.71 248.698 1284.89 236.698C1273.89 224.495 1258.23 217.745 1240.87 217.709L425.256 215.552C425.204 215.552 425.141 215.552 425.084 215.552C389.261 215.552 357.282 244.172 353.74 279.427L316.641 649.219C316.49 650.677 315.193 651.756 313.73 651.584C312.271 651.448 311.209 650.146 311.36 648.688L348.459 278.907C352.266 241.011 386.62 210.245 425.084 210.245C425.146 210.245 425.209 210.245 425.271 210.245L1240.88 212.401C1259.77 212.448 1276.8 219.813 1288.83 233.146C1300.66 246.276 1306.17 263.594 1304.34 281.938L1255.51 768.625C1251.7 806.516 1217.34 837.276 1178.88 837.276Z" fill="#764A09"/>
<path d="M546.657 330.719H490.568C482.501 330.719 476.615 324.016 477.422 315.75C478.235 307.479 485.428 300.776 493.495 300.776H549.584C557.652 300.776 563.527 307.479 562.725 315.75C561.912 324.016 554.719 330.719 546.657 330.719Z" fill="#FFDE59"/>
<path d="M710.224 706.619H436.318C428.25 706.619 422.365 699.922 423.177 691.646C423.985 683.38 431.178 676.677 439.245 676.677H713.151C721.219 676.677 727.105 683.38 726.297 691.646C725.49 699.922 718.292 706.619 710.224 706.619Z" fill="#FFDE59"/>
<path d="M743.589 768.573H425.329C417.261 768.573 411.381 761.869 412.188 753.599C412.995 745.328 420.193 738.63 428.261 738.63H746.516C754.584 738.63 760.469 745.328 759.662 753.599C758.855 761.869 751.657 768.573 743.589 768.573Z" fill="#FFDE59"/>
<path d="M874.146 330.719H634.292C626.219 330.719 620.344 324.016 621.152 315.75C621.959 307.479 629.152 300.776 637.219 300.776H877.084C885.146 300.776 891.032 307.479 890.224 315.75C889.407 324.016 882.224 330.719 874.146 330.719Z" fill="#FFDE59"/>
<path d="M1274.47 547.047L324.001 551.146C319.574 551.156 316.115 547.318 316.6 542.911L325.152 465.651C325.449 462.927 327.756 460.885 330.495 460.891L1283.79 465.995C1287.09 466.01 1289.64 468.906 1289.23 472.182L1280.62 541.594C1280.23 544.698 1277.59 547.036 1274.47 547.047Z" fill="#BD9472"/>
<path d="M330.464 463.542C329.089 463.542 327.938 464.573 327.787 465.943L319.24 543.198C319.089 544.568 319.511 545.886 320.433 546.912C321.35 547.927 322.605 548.49 323.969 548.49C323.98 548.49 323.985 548.49 323.995 548.49L1274.46 544.396C1276.25 544.381 1277.77 543.037 1277.99 541.256L1286.6 471.86C1286.71 471.037 1286.46 470.24 1285.91 469.62C1285.37 468.995 1284.62 468.651 1283.78 468.641L330.48 463.542C330.475 463.542 330.469 463.542 330.464 463.542ZM323.975 553.792C321.126 553.792 318.396 552.584 316.49 550.459C314.573 548.328 313.652 545.464 313.969 542.615L322.516 465.349C322.964 461.282 326.381 458.229 330.464 458.229C330.48 458.229 330.49 458.229 330.511 458.229L1283.81 463.344C1286.14 463.349 1288.36 464.365 1289.9 466.115C1291.44 467.865 1292.16 470.193 1291.88 472.511L1283.26 541.917C1282.71 546.339 1278.94 549.683 1274.48 549.698L324.016 553.792C324.001 553.792 323.99 553.792 323.975 553.792Z" fill="#764A09"/>
<path d="M1042.35 838.25H961.183C958.209 838.25 956.042 835.448 956.329 832.005L1009.75 214.953C1010.04 211.505 1012.71 208.708 1015.67 208.708H1096.84C1099.82 208.708 1101.99 211.505 1101.69 214.953L1048.28 832.005C1047.98 835.448 1045.33 838.25 1042.35 838.25Z" fill="#BD9472"/>
<path d="M1015.67 211.36C1014.1 211.36 1012.56 213.151 1012.39 215.193L958.98 832.235C958.876 833.313 959.157 834.308 959.761 834.948C960.152 835.381 960.631 835.594 961.183 835.594H1042.35C1043.93 835.594 1045.45 833.808 1045.64 831.776L1099.04 214.735C1099.14 213.646 1098.85 212.651 1098.27 212.016C1097.88 211.584 1097.39 211.36 1096.84 211.36H1015.67ZM1042.35 840.901H961.183C959.141 840.901 957.251 840.063 955.855 838.532C954.261 836.802 953.464 834.339 953.688 831.776L1007.09 214.735C1007.52 209.87 1011.29 206.058 1015.67 206.058H1096.84C1098.88 206.058 1100.78 206.901 1102.18 208.427C1103.77 210.162 1104.55 212.625 1104.33 215.193L1050.92 832.235C1050.5 837.089 1046.73 840.901 1042.35 840.901Z" fill="#764A09"/>
<path d="M1078.76 528.745C1108.83 599.604 1127.02 654.948 1131.18 676.709C1132.2 682.11 1128.78 687.891 1123.38 689.61C1115.21 692.224 1107.11 693.485 1099.08 693.563L1058.51 534.318L1078.76 528.745Z" fill="#764A09"/>
<path d="M1061.72 536.188L1101.13 690.865C1108.31 690.604 1115.52 689.339 1122.58 687.083C1126.66 685.776 1129.35 681.339 1128.56 677.198C1124.54 656.099 1106.77 601.766 1077.22 531.922L1061.72 536.188ZM1099.08 696.214C1097.87 696.214 1096.81 695.385 1096.51 694.219L1055.93 534.974C1055.58 533.578 1056.4 532.146 1057.79 531.766L1078.05 526.193C1079.32 525.839 1080.67 526.49 1081.19 527.714C1111.44 598.948 1129.65 654.62 1133.78 676.208C1135.07 683.005 1130.86 690.01 1124.18 692.146C1115.94 694.771 1107.5 696.141 1099.1 696.214C1099.1 696.214 1099.09 696.214 1099.08 696.214Z" fill="#764A09"/>
<path d="M1071.15 530.146C1088.25 637.781 1105.65 692.63 1119.73 690.776C1061.28 703.177 984.652 700.14 901.745 690.505C894.027 689.609 888.938 682.614 890.162 674.573C897.037 629.51 919.193 583.583 950.896 537.104L1071.15 530.146Z" fill="#BD9472"/>
<path d="M952.36 539.682C918.568 589.422 899.089 633.682 892.787 674.974C892.282 678.271 893.037 681.422 894.891 683.854C896.615 686.114 899.151 687.536 902.047 687.869C993.636 698.51 1060.51 699.13 1111.37 689.729C1105.65 684.031 1100 671.744 1094.04 652.302C1085.65 624.942 1077.2 584.797 1068.9 532.927L952.36 539.682ZM1028.31 701.64C992.094 701.64 950.245 698.812 901.438 693.14C897.099 692.64 893.271 690.479 890.672 687.078C887.933 683.489 886.818 678.901 887.542 674.177C894.006 631.781 914.016 586.458 948.709 535.614C949.172 534.932 949.922 534.505 950.745 534.453L1070.98 527.494C1072.34 527.401 1073.54 528.38 1073.76 529.729C1098.13 683 1115.99 688.619 1119.39 688.146C1120.77 687.948 1122.11 688.922 1122.35 690.333C1122.59 691.734 1121.68 693.078 1120.29 693.369C1094.28 698.885 1064.04 701.64 1028.31 701.64Z" fill="#764A09"/>
<path d="M1034.44 588.511C1034.43 588.511 1034.42 588.511 1034.41 588.511C1032.95 588.495 1031.77 587.297 1031.79 585.828L1032.25 539.412C1032.27 537.953 1033.45 536.776 1034.9 536.776C1034.92 536.776 1034.92 536.776 1034.93 536.776C1036.4 536.792 1037.57 537.995 1037.56 539.459L1037.09 585.886C1037.08 587.344 1035.89 588.511 1034.44 588.511Z" fill="#764A09"/>
<path d="M974.073 585.261C973.797 585.261 973.516 585.219 973.24 585.125C971.855 584.667 971.094 583.172 971.553 581.776L985.735 538.599C986.198 537.214 987.688 536.454 989.089 536.912C990.48 537.37 991.235 538.865 990.777 540.256L976.589 583.438C976.224 584.558 975.183 585.261 974.073 585.261Z" fill="#764A09"/>
<path d="M1081.83 479.317C1122.14 407.021 1148.43 350.765 1155.84 328.776C1157.67 323.312 1155.23 317.656 1150.21 316.14C1142.62 313.864 1134.9 312.906 1127.06 313.161L1062.9 474.552L1081.83 479.317Z" fill="#764A09"/>
<path d="M1066.5 472.703L1080.51 476.239C1120.29 404.75 1146.12 349.312 1153.33 327.916C1154.06 325.765 1153.94 323.489 1153 321.677C1152.47 320.635 1151.41 319.27 1149.45 318.672C1142.85 316.687 1135.87 315.698 1128.89 315.776L1066.5 472.703ZM1081.84 481.963C1081.62 481.963 1081.4 481.937 1081.19 481.88L1062.26 477.114C1061.52 476.922 1060.88 476.422 1060.54 475.75C1060.19 475.067 1060.16 474.27 1060.44 473.557L1124.6 312.177C1125 311.187 1125.94 310.531 1127 310.505C1135.22 310.234 1143.3 311.276 1150.98 313.599C1153.9 314.474 1156.29 316.479 1157.71 319.239C1159.31 322.323 1159.54 326.104 1158.37 329.614C1151.02 351.416 1124.66 407.953 1084.15 480.599C1083.68 481.453 1082.78 481.963 1081.84 481.963Z" fill="#764A09"/>
<path d="M1074.6 478.219C1107.9 369.542 1133.36 313.823 1146.83 315.11C1091.61 305.042 1016.22 311.193 933.704 324.204C926.016 325.417 919.959 332.636 919.928 340.651C919.714 385.584 934.297 430.766 958.146 476.099L1074.6 478.219Z" fill="#BD9472"/>
<path d="M959.761 473.474L1072.66 475.531C1088.82 422.953 1103.31 382.193 1115.73 354.349C1125.71 331.969 1132.91 321.297 1138.21 316.375C1090.04 309.162 1024.81 312.526 934.115 326.823C927.683 327.839 922.61 333.927 922.578 340.672C922.375 381.693 934.547 425.146 959.761 473.474ZM1074.6 480.875C1074.6 480.875 1074.57 480.875 1074.56 480.875L958.094 478.755C957.125 478.74 956.25 478.193 955.802 477.334C929.672 427.662 917.073 382.948 917.276 340.641C917.318 331.365 924.349 323 933.282 321.589C1029.79 306.365 1097.81 303.479 1147.31 312.5C1148.7 312.766 1149.65 314.073 1149.46 315.485C1149.26 316.886 1147.97 317.901 1146.57 317.755C1146.51 317.755 1146.44 317.745 1146.37 317.745C1142.59 317.745 1123.78 326.771 1077.14 479C1076.81 480.115 1075.77 480.875 1074.6 480.875Z" fill="#764A09"/>
<path d="M1040.63 473.021C1040.51 473.021 1040.38 473.016 1040.25 473C1038.8 472.787 1037.79 471.443 1038 469.99L1044.69 423.438C1044.89 421.99 1046.25 420.974 1047.69 421.188C1049.14 421.401 1050.15 422.745 1049.94 424.188L1043.25 470.75C1043.06 472.068 1041.93 473.021 1040.63 473.021Z" fill="#764A09"/>
<path d="M995.027 474.912C993.75 474.912 992.62 473.995 992.407 472.698L985.183 429.959C984.938 428.516 985.917 427.146 987.36 426.896C988.808 426.662 990.178 427.631 990.412 429.079L997.646 471.818C997.886 473.261 996.917 474.631 995.464 474.881C995.313 474.901 995.167 474.912 995.027 474.912Z" fill="#764A09"/>
<path d="M967.11 473.036H1074.94C1081.56 473.036 1086.38 478.536 1085.72 485.323L1081.71 526.218C1081.05 533 1075.16 538.5 1068.53 538.5H960.704C954.089 538.5 949.261 533 949.928 526.218L953.928 485.323C954.594 478.536 960.49 473.036 967.11 473.036Z" fill="#BD9472"/>
<path d="M967.11 475.692C961.828 475.692 957.099 480.125 956.563 485.588L952.563 526.479C952.302 529.078 953.058 531.479 954.657 533.25C956.177 534.927 958.323 535.849 960.703 535.849H1068.53C1073.81 535.849 1078.54 531.411 1079.07 525.963L1083.07 485.062C1083.33 482.474 1082.58 480.067 1080.97 478.297C1079.45 476.619 1077.31 475.692 1074.94 475.692H967.11ZM1068.53 541.156H960.703C956.813 541.156 953.266 539.614 950.73 536.812C948.105 533.927 946.881 530.067 947.287 525.963L951.282 485.062C952.078 476.974 959.172 470.396 967.11 470.396H1074.94C1078.83 470.396 1082.37 471.932 1084.9 474.729C1087.53 477.625 1088.76 481.474 1088.35 485.588L1084.35 526.479C1083.56 534.573 1076.46 541.156 1068.53 541.156Z" fill="#764A09"/>
<path d="M99.4222 1331.1L75.9847 1408.21L41.7295 1398.34L66.641 1317.3L99.4222 1331.1Z" fill="white"/>
<path d="M45.0577 1396.54L74.2087 1404.94L96.1879 1332.62L68.3129 1320.88L45.0577 1396.54ZM77.7608 1411.49L38.3962 1400.15L64.9692 1313.72L102.657 1329.58L77.7608 1411.49Z" fill="#764A09"/>
<path d="M293.407 1350.43L291.771 1405.46L253.037 1405.45L255.75 1347.99L293.407 1350.43Z" fill="white"/>
<path d="M255.818 1402.8L289.198 1402.81L290.678 1352.92L258.271 1350.81L255.818 1402.8ZM294.349 1408.12L250.25 1408.1L253.23 1345.17L296.131 1347.95L294.349 1408.12Z" fill="#764A09"/>
<path d="M131.037 882.244C131.037 882.244 113.355 926.406 109.922 971.677C106.485 1016.94 59.4953 1290.2 45.4224 1359.04C45.4224 1359.04 76.9588 1376.69 94.9328 1373.8C94.9328 1373.8 196.454 1171.56 212.995 1020.91C229.537 870.25 224.709 882.281 224.709 882.281L131.037 882.244Z" fill="#764A09"/>
<path d="M162.193 899.208C162.193 899.208 156.501 980.828 184.797 1038.52C213.099 1096.21 247.094 1320.49 244.724 1377.53C244.724 1377.53 280.579 1387.01 297.573 1380.35C297.573 1380.35 349.063 1057.07 283.49 898.109L162.193 899.208Z" fill="#764A09"/>
<path d="M202.052 1102.24C200.797 1102.24 199.683 1101.34 199.448 1100.07C199.401 1099.84 194.985 1076.47 184.391 1057.73C168.23 1029.15 162.334 994.755 162.094 993.307C161.849 991.859 162.829 990.495 164.271 990.25C165.714 990.015 167.084 990.984 167.329 992.427C167.381 992.771 173.318 1027.36 189.011 1055.12C200.058 1074.65 204.48 1098.12 204.667 1099.1C204.933 1100.54 203.974 1101.93 202.537 1102.19C202.375 1102.22 202.214 1102.24 202.052 1102.24Z" fill="#FFDE59"/>
<path d="M165.042 700.282L148.203 681.594C140.938 663.052 120.709 646.99 103.719 636.599C33.2608 593.526 43.1566 511.75 42.74 478.636L15.9222 482.787C15.9222 482.787 -50.083 654.521 112.438 736.61L165.042 700.282Z" fill="white"/>
<path d="M17.8807 485.166C15.1411 493.02 2.50572 532.218 5.89635 578.911C10.9016 647.927 46.6776 699.942 112.23 733.526L161.053 699.812L146.235 683.369C146.021 683.13 145.849 682.854 145.735 682.557C138.037 662.922 115.24 646.75 102.334 638.864C38.0526 599.562 39.3078 528.713 39.9797 490.651C40.0422 487.375 40.0943 484.411 40.0995 481.724L17.8807 485.166ZM112.433 739.26C112.027 739.26 111.62 739.166 111.24 738.974C26.1776 696.01 4.1151 628.328 0.589056 579.104C-3.22344 525.932 13.2818 482.27 13.4484 481.838C13.787 480.948 14.5786 480.307 15.5161 480.161L42.3338 476.005C43.0995 475.89 43.8651 476.104 44.4536 476.599C45.0422 477.104 45.3859 477.823 45.3911 478.593C45.438 482.151 45.3703 486.135 45.287 490.744C44.6307 527.744 43.412 596.619 105.099 634.333C118.48 642.51 142.068 659.291 150.49 680.166L167.016 698.5C167.527 699.067 167.766 699.828 167.678 700.583C167.594 701.343 167.178 702.026 166.553 702.463L113.943 738.786C113.49 739.099 112.964 739.26 112.433 739.26Z" fill="#764A09"/>
<path d="M25.3129 486.083C23.7972 485.604 22.24 484.927 20.6514 484.005C13.0004 479.583 3.12537 465.432 7.09933 456.208C12.7868 442.995 43.1462 445.771 48.8285 457.495C55.7139 471.708 40.6827 490.875 25.3129 486.083Z" fill="white"/>
<path d="M26.1047 483.552C32.9797 485.698 39.3027 481.974 42.9224 477.771C47.8912 471.995 49.2714 464.495 46.4433 458.662C44.0162 453.646 34.6099 449.943 25.0266 450.099C17.1829 450.276 11.3912 452.948 9.53182 457.261C6.30786 464.75 14.8808 477.609 21.9849 481.708C23.3547 482.511 24.7454 483.125 26.1047 483.552ZM30.1672 489.474C28.2714 489.474 26.3756 489.193 24.5214 488.609C22.787 488.073 21.0422 487.297 19.3287 486.302C11.4016 481.724 -0.192135 466.417 4.66203 455.162C7.36516 448.891 14.9329 445.016 24.9068 444.797C34.7558 444.552 47.2245 448.099 51.2141 456.344C54.9693 464.083 53.287 473.865 46.9381 481.234C42.3495 486.557 36.261 489.474 30.1672 489.474Z" fill="#764A09"/>
<path d="M432.813 642.584C506.287 690.573 464.724 841.532 351.089 788.802L343.594 712.318C441.808 754.693 435.063 696.568 409.568 633.964L432.813 642.584Z" fill="white"/>
<path d="M353.584 787.026C397.459 806.823 435.459 797.235 455.443 761.214C475.193 725.594 470.303 670.464 431.61 644.964L414.251 638.526C431.094 681.672 432.948 708.891 419.938 721.641C407.745 733.583 383.756 731.912 346.672 716.505L353.584 787.026ZM395.844 802.521C381.553 802.521 366.209 798.745 349.974 791.214C349.126 790.813 348.542 789.995 348.454 789.068L340.959 712.578C340.865 711.646 341.271 710.729 342.032 710.177C342.787 709.62 343.782 709.511 344.646 709.886C381.365 725.719 405.448 728.406 416.224 717.854C427.912 706.396 424.844 678.511 407.115 634.959C406.714 633.99 406.933 632.87 407.667 632.115C408.396 631.36 409.511 631.104 410.49 631.474L433.735 640.094C433.917 640.167 434.099 640.255 434.261 640.36C475.657 667.396 481.032 726.011 460.084 763.787C450.297 781.422 435.787 793.667 418.115 799.198C411.021 801.417 403.589 802.521 395.844 802.521Z" fill="#764A09"/>
<path d="M416.683 643.604C415.016 643.084 413.313 642.339 411.579 641.339C403.188 636.485 392.37 620.985 396.725 610.87C402.959 596.406 436.219 599.443 442.443 612.287C449.985 627.865 433.521 648.854 416.683 643.604Z" fill="white"/>
<path d="M417.25 603.922C416.953 603.922 416.657 603.922 416.355 603.933C407.662 604.125 401.235 607.12 399.162 611.927C395.573 620.25 405.052 634.5 412.901 639.037C414.427 639.912 415.964 640.599 417.469 641.073C417.469 641.073 417.469 641.073 417.474 641.073C425.125 643.459 432.146 639.328 436.162 634.667C441.672 628.266 443.198 619.938 440.058 613.453C437.391 607.943 427.683 603.922 417.25 603.922ZM422 647.068C419.948 647.068 417.896 646.766 415.891 646.13C414.011 645.547 412.11 644.709 410.25 643.636C401.636 638.651 389.032 622.037 394.287 609.823C397.209 603.052 405.412 598.865 416.24 598.63C427.344 598.37 440.698 602.604 444.834 611.136C448.901 619.532 447.073 630.13 440.177 638.125C435.203 643.907 428.605 647.068 422 647.068Z" fill="#764A09"/>
<path d="M360.912 714.182C360.808 712.151 359.855 710.261 358.271 708.974C352.568 704.328 331.907 694.011 314.141 683.844C294.526 672.609 277.136 665.563 254.537 665.844L178.032 661.688C156.698 661.594 144.443 657.594 126.714 647.099C106 634.828 92.8753 617.5 87.6618 611.787C86.7035 610.74 85.0107 610.969 84.3545 612.224L39.7451 697.589C39.7451 697.589 74.2295 729.089 119.714 764.073C121.162 765.188 123.073 800.005 122.87 801.823L108.625 931.667C107.443 940.682 309.386 955.208 308.797 945.797C306.912 915.469 296.292 890.276 300.771 794.865C300.933 791.443 304.058 788.948 307.422 789.604C317.115 791.484 336.605 795.193 356.308 798.547C360.823 799.307 364.891 795.698 364.667 791.12L360.912 714.182Z" fill="#BD9472"/>
<path d="M111.271 931.88L111.261 931.953C111.266 931.932 111.266 931.906 111.271 931.88ZM111.381 930.859C117.188 933.844 152.053 938.953 208.412 942.974C264.521 946.984 299.678 946.87 306.068 944.734C305.527 937.047 304.433 929.625 303.183 921.094C299.662 897.208 294.844 864.484 298.12 794.745C298.235 792.328 299.386 790.094 301.277 788.604C303.157 787.12 305.579 786.547 307.922 786.995C317.693 788.891 337.027 792.573 356.756 795.927C358.105 796.161 359.469 795.771 360.5 794.854C361.532 793.943 362.084 792.625 362.016 791.245L358.261 714.323C358.198 713.042 357.594 711.839 356.599 711.031C353.183 708.255 343.266 702.87 332.771 697.167C326.188 693.594 319.386 689.891 312.823 686.141C293.974 675.354 276.839 668.224 254.568 668.495L177.891 664.339C157.12 664.25 144.323 660.615 125.36 649.385C107.329 638.703 95.063 624.422 88.4744 616.75C87.6515 615.797 86.9276 614.948 86.2973 614.234L43.0473 696.995C50.1828 703.427 81.7609 731.526 121.329 761.974C122.469 762.849 123.224 763.432 124.558 782.505C125.063 789.719 125.667 800.672 125.506 802.109L111.381 930.859ZM281.964 951.505C255.542 951.505 218.797 949.031 208.766 948.318C199.506 947.661 118.006 941.708 107.912 934.948C106 933.667 105.886 932.125 105.995 931.323L120.235 801.526C120.37 799.068 118.683 770.469 117.542 765.75C72.7609 731.255 38.2973 699.865 37.9536 699.552C37.063 698.734 36.8338 697.427 37.3911 696.354L82.0057 611C82.714 609.641 84.0473 608.703 85.5682 608.51C87.089 608.318 88.5942 608.87 89.6203 609.995C90.4015 610.854 91.3599 611.969 92.4953 613.292C98.8859 620.729 110.782 634.578 128.063 644.813C146.313 655.62 157.99 658.948 178.047 659.036L254.683 663.193C278.011 662.927 295.855 670.313 315.459 681.536C321.969 685.266 328.745 688.943 335.303 692.505C346.49 698.583 356.152 703.828 359.948 706.917C362.105 708.672 363.422 711.276 363.563 714.057L367.318 790.99C367.459 793.984 366.261 796.833 364.021 798.828C361.787 800.813 358.813 801.672 355.865 801.156C336.084 797.797 316.704 794.104 306.912 792.208C306.068 792.036 305.23 792.24 304.553 792.771C303.875 793.313 303.464 794.12 303.422 794.995C300.167 864.224 304.943 896.646 308.428 920.323C309.771 929.417 310.928 937.281 311.448 945.63C311.49 946.276 311.37 947.896 309.417 949.016C306.214 950.859 295.428 951.505 281.964 951.505Z" fill="#764A09"/>
<path d="M197.292 607.911L191.089 669.286C190.214 676.797 195.917 683.468 203.474 683.76L221.782 684.474C229.188 684.76 235.329 678.797 235.266 671.39L234.818 612.781L197.292 607.911Z" fill="white"/>
<path d="M199.657 610.885L193.725 669.547C193.386 672.479 194.245 675.292 196.136 677.51C198.027 679.719 200.672 681 203.579 681.109L221.886 681.812C224.735 681.922 227.428 680.896 229.475 678.911C231.521 676.922 232.636 674.266 232.615 671.417L232.183 615.115L199.657 610.885ZM222.308 687.13C222.1 687.13 221.891 687.13 221.678 687.125L203.376 686.411C199.032 686.245 194.928 684.255 192.105 680.958C189.282 677.661 187.948 673.292 188.454 668.974L194.657 607.641C194.725 606.927 195.084 606.276 195.646 605.828C196.209 605.391 196.928 605.182 197.636 605.276L235.162 610.151C236.475 610.323 237.464 611.432 237.475 612.76L237.917 671.37C237.954 675.682 236.266 679.719 233.167 682.724C230.225 685.578 226.386 687.13 222.308 687.13Z" fill="#764A09"/>
<path d="M226.824 532.349C212.11 534.339 210.105 550.948 192.521 552.891C184.469 553.782 180.422 550.792 173.282 554.224C168.558 556.485 161.678 561.959 160.975 569.183C160.074 578.401 170.178 580.391 180.49 598.136C187.73 610.594 188.167 618.933 193.933 619.839C199.756 620.75 202.365 612.703 208.803 613.229C217.141 613.891 218.225 627.813 227.016 631.959C232.558 634.578 244.172 634.042 260.568 621.766C263.225 619.787 264.089 616.172 262.615 613.203C260.719 609.391 258.303 604.594 255.61 600.203C242.761 579.282 233.693 575.74 235.485 569.328C238.23 559.5 256.266 561.323 257.662 553.422C259.105 545.203 241.928 530.308 226.824 532.349Z" fill="#764A09"/>
<path d="M206.589 572.37C206.589 572.37 219.511 599.532 224.474 606.318C229.438 613.104 251.62 599.328 251.62 599.328L252.162 594.438L254.818 592.709C255.641 592.177 256.172 591.297 256.276 590.323C256.375 589.344 256.026 588.375 255.328 587.677C249.979 582.381 238.631 570.328 233.115 558.615C233.115 558.615 218.125 554.797 206.589 572.37Z" fill="white"/>
<path d="M209.641 572.604C212.323 578.177 222.48 599.094 226.615 604.75C228.605 607.469 239.813 603.318 249.125 597.745L249.527 594.146C249.615 593.354 250.053 592.641 250.719 592.219L253.37 590.49C253.521 590.385 253.615 590.234 253.636 590.052C253.652 589.87 253.589 589.687 253.459 589.562C247.573 583.724 237.068 572.422 231.329 561C228.006 560.625 218.105 560.667 209.641 572.604ZM229.193 610.833C226.329 610.833 223.886 610.01 222.334 607.885C217.282 600.979 204.73 574.63 204.198 573.51C203.797 572.667 203.865 571.693 204.375 570.911C216.803 551.979 233.084 555.87 233.771 556.036C234.537 556.24 235.183 556.766 235.516 557.484C240.938 569 252.485 581.12 257.198 585.797C258.474 587.062 259.094 588.807 258.912 590.594C258.73 592.37 257.766 593.958 256.266 594.932L254.662 595.984L254.256 599.625C254.162 600.432 253.709 601.151 253.016 601.588C248.813 604.193 237.308 610.833 229.193 610.833Z" fill="#764A09"/>
<path d="M211.261 594.453C211.261 594.453 201.063 581.959 196.365 587.797C191.662 593.641 203.235 607.11 211.261 594.453Z" fill="white"/>
<path d="M1407.56 1046.17L1162.9 1111.43L918.959 1045.87C918.495 1045.74 918.495 1045.1 918.959 1044.97L1165.79 979.031L1407.56 1045.48C1407.91 1045.58 1407.9 1046.07 1407.56 1046.17Z" fill="white"/>
<path d="M919.636 1043.3H919.646C919.646 1043.3 919.646 1043.3 919.636 1043.3ZM927.542 1045.43L1162.91 1108.68L1398.67 1045.79L1165.77 981.776L927.542 1045.43ZM1162.9 1114.09C1162.67 1114.09 1162.45 1114.06 1162.21 1113.99L918.266 1048.43C916.907 1048.07 915.959 1046.83 915.959 1045.42C915.959 1044.01 916.907 1042.78 918.277 1042.41L1165.09 976.459C1165.56 976.339 1166.03 976.339 1166.5 976.469L1408.27 1042.93C1409.56 1043.29 1410.47 1044.49 1410.47 1045.84C1410.46 1047.19 1409.55 1048.38 1408.24 1048.73L1163.59 1113.99C1163.37 1114.06 1163.14 1114.09 1162.9 1114.09Z" fill="#764A09"/>
<path d="M1162.71 1458.81L1162.95 1110.89L1409.82 1045.6L1409.59 1392L1162.71 1458.81Z" fill="#FFDE59"/>
<path d="M1165.59 1112.93L1165.38 1455.34L1406.94 1389.96L1407.17 1049.05L1165.59 1112.93ZM1162.72 1461.46C1162.14 1461.46 1161.57 1461.27 1161.11 1460.91C1160.45 1460.42 1160.07 1459.63 1160.07 1458.81L1160.29 1110.88C1160.29 1109.68 1161.11 1108.63 1162.26 1108.32L1409.15 1043.04C1409.95 1042.83 1410.8 1043.01 1411.44 1043.5C1412.09 1044.01 1412.47 1044.78 1412.47 1045.6L1412.23 1392C1412.23 1393.19 1411.44 1394.25 1410.29 1394.56L1163.41 1461.36C1163.18 1461.43 1162.94 1461.46 1162.72 1461.46Z" fill="#764A09"/>
<path d="M1263.3 1433.33L1263.53 1085.41L1331.46 1067.14L1331.22 1413.52L1263.3 1433.33Z" fill="#FFCB46"/>
<path d="M1165.59 1112.93L1165.38 1455.34L1406.94 1389.96L1407.17 1049.05L1165.59 1112.93ZM1162.72 1461.46C1162.14 1461.46 1161.57 1461.27 1161.11 1460.91C1160.45 1460.42 1160.07 1459.63 1160.07 1458.81L1160.29 1110.88C1160.29 1109.68 1161.11 1108.63 1162.26 1108.32L1409.15 1043.04C1409.95 1042.83 1410.8 1043.01 1411.44 1043.5C1412.09 1044.01 1412.47 1044.78 1412.47 1045.6L1412.23 1392C1412.23 1393.19 1411.44 1394.25 1410.29 1394.56L1163.41 1461.36C1163.18 1461.43 1162.94 1461.46 1162.72 1461.46Z" fill="#764A09"/>
<path d="M1162.72 1458.81L1162.94 1110.89L918.302 1045.19L918.073 1391.98L1162.72 1458.81Z" fill="white"/>
<path d="M994.402 1064.6L994.172 1410.5L1059.52 1430.86L1059.75 1084.79L994.402 1064.6Z" fill="#FFCB46"/>
<path d="M920.724 1389.96L1158.9 1455.01C1159.28 1455.11 1159.57 1454.96 1159.71 1454.86C1159.84 1454.76 1160.07 1454.52 1160.07 1454.13L1160.3 1112.92L920.959 1048.65L920.724 1389.96ZM1159.17 1460.35C1158.61 1460.35 1158.05 1460.28 1157.51 1460.14L915.422 1394.01L915.646 1047.28C915.646 1045.94 916.256 1044.7 917.318 1043.9C918.381 1043.09 919.714 1042.82 921.006 1043.17L1165.61 1108.85L1165.38 1454.13C1165.38 1456.08 1164.48 1457.89 1162.93 1459.08C1161.82 1459.92 1160.5 1460.35 1159.17 1460.35Z" fill="#764A09"/>
<path d="M995.402 1111.08L1044.01 1094.21C1048.59 1092.61 1053.17 1096.58 1052.26 1101.33L1044.89 1139.86C1043.7 1146.06 1051.37 1149.95 1055.68 1145.33L1135.95 1059.08C1139.2 1055.59 1137.56 1049.92 1132.96 1048.7L1067.49 1031.33C1065.39 1030.78 1063.16 1031.33 1061.59 1032.82L989.042 1100.54C984.073 1105.19 988.98 1113.32 995.402 1111.08Z" fill="white"/>
<path d="M1046.11 1091.19C1048.21 1091.19 1050.26 1091.94 1051.91 1093.39C1054.37 1095.5 1055.46 1098.66 1054.86 1101.83L1047.49 1140.36C1047.11 1142.34 1048.24 1143.69 1049.42 1144.29C1050.6 1144.89 1052.35 1145 1053.72 1143.52L1134.01 1057.27C1134.9 1056.31 1135.2 1055.04 1134.84 1053.78C1134.47 1052.52 1133.54 1051.6 1132.27 1051.28L1066.81 1033.9C1065.58 1033.57 1064.31 1033.89 1063.39 1034.76L990.849 1102.48C989.261 1103.96 989.474 1105.8 990.209 1107.02C990.954 1108.24 992.485 1109.29 994.527 1108.58L1043.14 1091.71C1044.11 1091.36 1045.13 1091.19 1046.11 1091.19ZM1051.14 1150.03C1049.75 1150.03 1048.35 1149.7 1047.02 1149.02C1043.38 1147.17 1041.51 1143.38 1042.28 1139.36L1049.64 1100.84C1049.89 1099.54 1049.44 1098.26 1048.45 1097.4C1047.46 1096.54 1046.12 1096.29 1044.88 1096.72L996.266 1113.59C992.172 1115.02 987.912 1113.47 985.667 1109.76C983.438 1106.05 984.058 1101.56 987.23 1098.6L1059.77 1030.88C1062.03 1028.77 1065.17 1027.97 1068.16 1028.77L1133.64 1046.14C1136.7 1046.95 1139.06 1049.26 1139.94 1052.31C1140.82 1055.35 1140.06 1058.56 1137.9 1060.89L1057.62 1147.14C1055.84 1149.04 1053.53 1150.03 1051.14 1150.03Z" fill="#764A09"/>
<path d="M1247.8 919.073L1199.63 948.411C1196.21 950.495 1191.84 947.953 1191.97 943.948L1193.62 892.255C1193.79 886.979 1186.76 885.036 1184.19 889.651L1118.89 1006.95C1117.47 1009.51 1118.52 1012.73 1121.16 1013.97L1179.23 1040.94C1181.55 1042.02 1184.31 1041.18 1185.65 1038.99L1254.72 926.005C1257.48 921.495 1252.31 916.328 1247.8 919.073Z" fill="white"/>
<path d="M1188.52 889.703C1187.91 889.703 1187.07 889.927 1186.51 890.937L1121.21 1008.23C1120.88 1008.83 1120.82 1009.5 1121.02 1010.13C1121.22 1010.78 1121.68 1011.28 1122.29 1011.56L1180.35 1038.53C1181.45 1039.04 1182.76 1038.65 1183.4 1037.61L1252.46 924.614C1253.37 923.135 1252.42 922.01 1252.12 921.697C1251.8 921.385 1250.67 920.432 1249.18 921.343L1201.01 950.677C1198.59 952.145 1195.57 952.177 1193.14 950.75C1190.69 949.328 1189.23 946.692 1189.32 943.864L1190.98 892.177C1191.03 890.442 1189.65 889.916 1189.22 889.796C1189.08 889.76 1188.82 889.703 1188.52 889.703ZM1181.35 1044.06C1180.27 1044.06 1179.16 1043.83 1178.13 1043.34L1120.06 1016.38C1118.12 1015.47 1116.64 1013.8 1115.97 1011.78C1115.31 1009.75 1115.54 1007.52 1116.57 1005.66L1181.88 888.359C1183.63 885.197 1187.15 883.713 1190.64 884.682C1194.13 885.651 1196.39 888.724 1196.28 892.343L1194.63 944.031C1194.59 945.312 1195.43 945.953 1195.8 946.171C1196.18 946.375 1197.15 946.812 1198.24 946.145L1246.43 916.802C1249.52 914.921 1253.31 915.38 1255.87 917.937C1258.42 920.505 1258.88 924.296 1256.98 927.385L1187.92 1040.38C1186.47 1042.73 1183.96 1044.06 1181.35 1044.06Z" fill="#764A09"/>
<path d="M1124.53 1053.84L1164.21 1020.87C1164.21 1020.87 1146.44 927.943 1070.49 914.599C1041.34 909.474 1009.64 919.803 981.745 964.053C959.485 999.36 1002.14 1039.96 1124.53 1053.84Z" fill="white"/>
<path d="M1057.05 916.052C1029.22 916.052 1004.69 932.625 983.98 965.474C977.844 975.192 977.079 984.968 981.667 994.552C994.657 1021.59 1046.4 1042.17 1123.71 1051.07L1161.27 1019.85C1158.54 1007.91 1138.02 929.166 1070.03 917.213C1065.63 916.442 1061.29 916.052 1057.05 916.052ZM1124.54 1056.49C1124.44 1056.49 1124.33 1056.48 1124.23 1056.48C1044.44 1047.43 990.745 1025.7 976.886 996.843C971.527 985.671 972.422 973.843 979.49 962.645C1004.62 922.786 1035.39 905.739 1070.94 911.989C1147.81 925.494 1166.63 1019.42 1166.82 1020.36C1166.99 1021.31 1166.65 1022.29 1165.9 1022.9L1126.22 1055.89C1125.75 1056.28 1125.15 1056.49 1124.54 1056.49Z" fill="#764A09"/>
<path d="M1124.53 1053.84C1124.53 1053.84 1111.44 970.584 1037.51 953.266C963.589 935.954 923.927 1031.1 1124.53 1053.84Z" fill="#FFCB46"/>
<path d="M1020.06 953.849C1005.71 953.849 993.146 958.427 985.86 966.844C979.766 973.854 978.334 982.646 981.813 991.588C985.193 1000.26 994.714 1013.19 1020.95 1025.61C1045.7 1037.33 1079.41 1045.79 1121.22 1050.79C1117.71 1035.04 1099.68 970.557 1036.9 955.849C1031.17 954.505 1025.48 953.849 1020.06 953.849ZM1124.53 1056.49C1124.44 1056.49 1124.33 1056.49 1124.24 1056.48C1008.26 1043.33 982.542 1008.07 976.876 993.515C972.641 982.651 974.407 971.943 981.849 963.359C993.172 950.302 1015.26 945.328 1038.12 950.682C1112.92 968.203 1127.02 1052.58 1127.16 1053.43C1127.29 1054.24 1127.02 1055.08 1126.46 1055.68C1125.95 1056.21 1125.25 1056.49 1124.53 1056.49Z" fill="#764A09"/>
<path d="M1124.98 1052.45L1169.98 1009.64C1169.98 1009.64 1225 951.443 1280.67 976.229C1313.02 990.641 1323.97 1021.78 1327.01 1048.44C1327.04 1048.69 1327.06 1048.93 1327.08 1049.18C1328.99 1067.89 1317.22 1085.27 1299.34 1091.05L1245.98 1108.27C1245.98 1108.27 1194.3 1117.16 1124.98 1052.45Z" fill="white"/>
<path d="M1128.85 1052.43C1193.3 1111.51 1242.18 1106.11 1245.37 1105.68L1298.53 1088.53C1315.3 1083.11 1326.2 1066.68 1324.45 1049.45L1324.37 1048.78C1321.62 1024.65 1311.62 992.922 1279.59 978.656C1226.29 954.927 1172.45 1010.9 1171.91 1011.46L1128.85 1052.43ZM1238.73 1111.38C1221.64 1111.38 1177.96 1105.54 1123.17 1054.39C1122.64 1053.89 1122.33 1053.19 1122.33 1052.47C1122.33 1051.73 1122.63 1051.04 1123.16 1050.53L1168.15 1007.72C1168.61 1007.22 1225.01 948.547 1281.73 973.813C1308.92 985.912 1325.48 1011.62 1329.64 1048.15L1329.72 1048.93C1331.73 1068.61 1319.3 1087.4 1300.16 1093.58L1246.79 1110.79C1246.68 1110.83 1246.56 1110.86 1246.43 1110.88C1245.97 1110.96 1243.3 1111.38 1238.73 1111.38Z" fill="#764A09"/>
<path d="M1124.98 1052.45C1124.98 1052.45 1182.46 996.495 1239.74 1028.93C1317.37 1072.89 1257.38 1168.47 1124.98 1052.45Z" fill="#FFCB46"/>
<path d="M1128.98 1052.41C1202.34 1115.79 1242.87 1106.22 1253.63 1101.72C1264.35 1097.24 1270.87 1088.49 1271.51 1077.71C1272.51 1061.16 1259.83 1043.35 1238.45 1031.24C1189.6 1003.58 1139.79 1042.98 1128.98 1052.41ZM1234.66 1110.53C1204.53 1110.53 1164.69 1090.77 1123.23 1054.44C1122.67 1053.96 1122.35 1053.26 1122.33 1052.52C1122.31 1051.78 1122.61 1051.06 1123.13 1050.55C1123.72 1049.97 1182.72 993.588 1241.05 1026.62C1264.57 1039.94 1277.94 1059.16 1276.81 1078.04C1276.04 1090.91 1268.33 1101.33 1255.68 1106.62C1249.4 1109.24 1242.35 1110.53 1234.66 1110.53Z" fill="#764A09"/>
<path d="M122.579 378.01C122.579 336.948 155.86 303.661 196.912 303.661C237.964 303.661 271.245 336.948 271.245 378.01C271.245 419.062 237.964 452.354 196.912 452.354C155.86 452.354 122.579 419.062 122.579 378.01Z" fill="white"/>
<path d="M196.912 306.318C157.391 306.318 125.235 338.479 125.235 378.011C125.235 417.542 157.391 449.698 196.912 449.698C236.438 449.698 268.589 417.542 268.589 378.011C268.589 338.479 236.438 306.318 196.912 306.318ZM196.912 455.006C154.464 455.006 119.927 420.464 119.927 378.011C119.927 335.552 154.464 301.011 196.912 301.011C239.36 301.011 273.896 335.552 273.896 378.011C273.896 420.464 239.36 455.006 196.912 455.006Z" fill="#764A09"/>
<path d="M197.323 415.412C196.589 415.87 195.662 415.891 194.907 415.469C188.36 411.807 157.969 393.49 159.157 369.542C160.412 344.219 187.881 348.609 194.667 361.073C194.922 361.542 195.428 361.833 195.964 361.797C196.5 361.771 196.974 361.438 197.183 360.938C200.506 352.938 211.256 347.141 221.375 350.943C233.443 355.474 245.709 385.422 197.323 415.412Z" fill="#BD9472"/>
</svg>
